<svg width="1000" height="1000" viewBox="0 0 1000 1000" fill="none" xmlns="http://www.w3.org/2000/svg">
<g clip-path="url(#clip0_201_3)">
<rect width="1000" height="1000" fill="white"/>
<path d="M0 0H25V25H0V0Z" fill="#D9D9D9"/>
<path d="M0 400H25V425H0V400Z" fill="#D9D9D9"/>
<path d="M0 200H25V225H0V200Z" fill="#D9D9D9"/>
<path d="M0 600H25V625H0V600Z" fill="#D9D9D9"/>
<path d="M0 50H25V75H0V50Z" fill="#D9D9D9"/>
<path d="M0 450H25V475H0V450Z" fill="#D9D9D9"/>
<path d="M0 250H25V275H0V250Z" fill="#D9D9D9"/>
<path d="M0 650H25V675H0V650Z" fill="#D9D9D9"/>
<path d="M0 800H25V825H0V800Z" fill="#D9D9D9"/>
<path d="M0 100H25V125H0V100Z" fill="#D9D9D9"/>
<path d="M0 500H25V525H0V500Z" fill="#D9D9D9"/>
<path d="M0 300H25V325H0V300Z" fill="#D9D9D9"/>
<path d="M0 700H25V725H0V700Z" fill="#D9D9D9"/>
<path d="M0 850H25V875H0V850Z" fill="#D9D9D9"/>
<path d="M0 150H25V175H0V150Z" fill="#D9D9D9"/>
<path d="M0 550H25V575H0V550Z" fill="#D9D9D9"/>
<path d="M0 350H25V375H0V350Z" fill="#D9D9D9"/>
<path d="M0 750H25V775H0V750Z" fill="#D9D9D9"/>
<path d="M0 900H25V925H0V900Z" fill="#D9D9D9"/>
<path d="M0 950H25V975H0V950Z" fill="#D9D9D9"/>
<path d="M300 0H325V25H300V0Z" fill="#D9D9D9"/>
<path d="M300 400H325V425H300V400Z" fill="#D9D9D9"/>
<path d="M300 200H325V225H300V200Z" fill="#D9D9D9"/>
<path d="M300 600H325V625H300V600Z" fill="#D9D9D9"/>
<path d="M300 50H325V75H300V50Z" fill="#D9D9D9"/>
<path d="M300 450H325V475H300V450Z" fill="#D9D9D9"/>
<path d="M300 250H325V275H300V250Z" fill="#D9D9D9"/>
<path d="M300 650H325V675H300V650Z" fill="#D9D9D9"/>
<path d="M300 800H325V825H300V800Z" fill="#D9D9D9"/>
<path d="M300 100H325V125H300V100Z" fill="#D9D9D9"/>
<path d="M300 500H325V525H300V500Z" fill="#D9D9D9"/>
<path d="M300 300H325V325H300V300Z" fill="#D9D9D9"/>
<path d="M300 700H325V725H300V700Z" fill="#D9D9D9"/>
<path d="M300 850H325V875H300V850Z" fill="#D9D9D9"/>
<path d="M300 150H325V175H300V150Z" fill="#D9D9D9"/>
<path d="M300 550H325V575H300V550Z" fill="#D9D9D9"/>
<path d="M300 350H325V375H300V350Z" fill="#D9D9D9"/>
<path d="M300 750H325V775H300V750Z" fill="#D9D9D9"/>
<path d="M300 900H325V925H300V900Z" fill="#D9D9D9"/>
<path d="M300 950H325V975H300V950Z" fill="#D9D9D9"/>
<path d="M275 25H300V50H275V25Z" fill="#D9D9D9"/>
<path d="M275 425H300V450H275V425Z" fill="#D9D9D9"/>
<path d="M275 225H300V250H275V225Z" fill="#D9D9D9"/>
<path d="M275 625H300V650H275V625Z" fill="#D9D9D9"/>
<path d="M275 75H300V100H275V75Z" fill="#D9D9D9"/>
<path d="M275 475H300V500H275V475Z" fill="#D9D9D9"/>
<path d="M275 275H300V300H275V275Z" fill="#D9D9D9"/>
<path d="M275 675H300V700H275V675Z" fill="#D9D9D9"/>
<path d="M275 825H300V850H275V825Z" fill="#D9D9D9"/>
<path d="M275 125H300V150H275V125Z" fill="#D9D9D9"/>
<path d="M275 525H300V550H275V525Z" fill="#D9D9D9"/>
<path d="M275 325H300V350H275V325Z" fill="#D9D9D9"/>
<path d="M275 725H300V750H275V725Z" fill="#D9D9D9"/>
<path d="M275 875H300V900H275V875Z" fill="#D9D9D9"/>
<path d="M275 175H300V200H275V175Z" fill="#D9D9D9"/>
<path d="M275 575H300V600H275V575Z" fill="#D9D9D9"/>
<path d="M275 375H300V400H275V375Z" fill="#D9D9D9"/>
<path d="M275 775H300V800H275V775Z" fill="#D9D9D9"/>
<path d="M275 925H300V950H275V925Z" fill="#D9D9D9"/>
<path d="M275 975H300V1000H275V975Z" fill="#D9D9D9"/>
<path d="M150 0H175V25H150V0Z" fill="#D9D9D9"/>
<path d="M150 400H175V425H150V400Z" fill="#D9D9D9"/>
<path d="M150 200H175V225H150V200Z" fill="#D9D9D9"/>
<path d="M150 600H175V625H150V600Z" fill="#D9D9D9"/>
<path d="M150 50H175V75H150V50Z" fill="#D9D9D9"/>
<path d="M150 450H175V475H150V450Z" fill="#D9D9D9"/>
<path d="M150 250H175V275H150V250Z" fill="#D9D9D9"/>
<path d="M150 650H175V675H150V650Z" fill="#D9D9D9"/>
<path d="M150 800H175V825H150V800Z" fill="#D9D9D9"/>
<path d="M150 100H175V125H150V100Z" fill="#D9D9D9"/>
<path d="M150 500H175V525H150V500Z" fill="#D9D9D9"/>
<path d="M150 300H175V325H150V300Z" fill="#D9D9D9"/>
<path d="M150 700H175V725H150V700Z" fill="#D9D9D9"/>
<path d="M150 850H175V875H150V850Z" fill="#D9D9D9"/>
<path d="M150 150H175V175H150V150Z" fill="#D9D9D9"/>
<path d="M150 550H175V575H150V550Z" fill="#D9D9D9"/>
<path d="M150 350H175V375H150V350Z" fill="#D9D9D9"/>
<path d="M150 750H175V775H150V750Z" fill="#D9D9D9"/>
<path d="M150 900H175V925H150V900Z" fill="#D9D9D9"/>
<path d="M150 950H175V975H150V950Z" fill="#D9D9D9"/>
<path d="M125 25H150V50H125V25Z" fill="#D9D9D9"/>
<path d="M125 425H150V450H125V425Z" fill="#D9D9D9"/>
<path d="M125 225H150V250H125V225Z" fill="#D9D9D9"/>
<path d="M125 625H150V650H125V625Z" fill="#D9D9D9"/>
<path d="M125 75H150V100H125V75Z" fill="#D9D9D9"/>
<path d="M125 475H150V500H125V475Z" fill="#D9D9D9"/>
<path d="M125 275H150V300H125V275Z" fill="#D9D9D9"/>
<path d="M125 675H150V700H125V675Z" fill="#D9D9D9"/>
<path d="M125 825H150V850H125V825Z" fill="#D9D9D9"/>
<path d="M125 125H150V150H125V125Z" fill="#D9D9D9"/>
<path d="M125 525H150V550H125V525Z" fill="#D9D9D9"/>
<path d="M125 325H150V350H125V325Z" fill="#D9D9D9"/>
<path d="M125 725H150V750H125V725Z" fill="#D9D9D9"/>
<path d="M125 875H150V900H125V875Z" fill="#D9D9D9"/>
<path d="M125 175H150V200H125V175Z" fill="#D9D9D9"/>
<path d="M125 575H150V600H125V575Z" fill="#D9D9D9"/>
<path d="M125 375H150V400H125V375Z" fill="#D9D9D9"/>
<path d="M125 775H150V800H125V775Z" fill="#D9D9D9"/>
<path d="M125 925H150V950H125V925Z" fill="#D9D9D9"/>
<path d="M125 975H150V1000H125V975Z" fill="#D9D9D9"/>
<path d="M450 0H475V25H450V0Z" fill="#D9D9D9"/>
<path d="M450 400H475V425H450V400Z" fill="#D9D9D9"/>
<path d="M450 200H475V225H450V200Z" fill="#D9D9D9"/>
<path d="M450 600H475V625H450V600Z" fill="#D9D9D9"/>
<path d="M450 50H475V75H450V50Z" fill="#D9D9D9"/>
<path d="M450 450H475V475H450V450Z" fill="#D9D9D9"/>
<path d="M450 250H475V275H450V250Z" fill="#D9D9D9"/>
<path d="M450 650H475V675H450V650Z" fill="#D9D9D9"/>
<path d="M450 800H475V825H450V800Z" fill="#D9D9D9"/>
<path d="M450 100H475V125H450V100Z" fill="#D9D9D9"/>
<path d="M450 500H475V525H450V500Z" fill="#D9D9D9"/>
<path d="M450 300H475V325H450V300Z" fill="#D9D9D9"/>
<path d="M450 700H475V725H450V700Z" fill="#D9D9D9"/>
<path d="M450 850H475V875H450V850Z" fill="#D9D9D9"/>
<path d="M450 150H475V175H450V150Z" fill="#D9D9D9"/>
<path d="M450 550H475V575H450V550Z" fill="#D9D9D9"/>
<path d="M450 350H475V375H450V350Z" fill="#D9D9D9"/>
<path d="M450 750H475V775H450V750Z" fill="#D9D9D9"/>
<path d="M450 900H475V925H450V900Z" fill="#D9D9D9"/>
<path d="M450 950H475V975H450V950Z" fill="#D9D9D9"/>
<path d="M425 25H450V50H425V25Z" fill="#D9D9D9"/>
<path d="M425 425H450V450H425V425Z" fill="#D9D9D9"/>
<path d="M425 225H450V250H425V225Z" fill="#D9D9D9"/>
<path d="M425 625H450V650H425V625Z" fill="#D9D9D9"/>
<path d="M425 75H450V100H425V75Z" fill="#D9D9D9"/>
<path d="M425 475H450V500H425V475Z" fill="#D9D9D9"/>
<path d="M425 275H450V300H425V275Z" fill="#D9D9D9"/>
<path d="M425 675H450V700H425V675Z" fill="#D9D9D9"/>
<path d="M425 825H450V850H425V825Z" fill="#D9D9D9"/>
<path d="M425 125H450V150H425V125Z" fill="#D9D9D9"/>
<path d="M425 525H450V550H425V525Z" fill="#D9D9D9"/>
<path d="M425 325H450V350H425V325Z" fill="#D9D9D9"/>
<path d="M425 725H450V750H425V725Z" fill="#D9D9D9"/>
<path d="M425 875H450V900H425V875Z" fill="#D9D9D9"/>
<path d="M425 175H450V200H425V175Z" fill="#D9D9D9"/>
<path d="M425 575H450V600H425V575Z" fill="#D9D9D9"/>
<path d="M425 375H450V400H425V375Z" fill="#D9D9D9"/>
<path d="M425 775H450V800H425V775Z" fill="#D9D9D9"/>
<path d="M425 925H450V950H425V925Z" fill="#D9D9D9"/>
<path d="M425 975H450V1000H425V975Z" fill="#D9D9D9"/>
<path d="M600 0H625V25H600V0Z" fill="#D9D9D9"/>
<path d="M600 400H625V425H600V400Z" fill="#D9D9D9"/>
<path d="M600 200H625V225H600V200Z" fill="#D9D9D9"/>
<path d="M600 600H625V625H600V600Z" fill="#D9D9D9"/>
<path d="M600 50H625V75H600V50Z" fill="#D9D9D9"/>
<path d="M600 450H625V475H600V450Z" fill="#D9D9D9"/>
<path d="M600 250H625V275H600V250Z" fill="#D9D9D9"/>
<path d="M600 650H625V675H600V650Z" fill="#D9D9D9"/>
<path d="M600 800H625V825H600V800Z" fill="#D9D9D9"/>
<path d="M600 100H625V125H600V100Z" fill="#D9D9D9"/>
<path d="M600 500H625V525H600V500Z" fill="#D9D9D9"/>
<path d="M600 300H625V325H600V300Z" fill="#D9D9D9"/>
<path d="M600 700H625V725H600V700Z" fill="#D9D9D9"/>
<path d="M600 850H625V875H600V850Z" fill="#D9D9D9"/>
<path d="M600 150H625V175H600V150Z" fill="#D9D9D9"/>
<path d="M600 550H625V575H600V550Z" fill="#D9D9D9"/>
<path d="M600 350H625V375H600V350Z" fill="#D9D9D9"/>
<path d="M600 750H625V775H600V750Z" fill="#D9D9D9"/>
<path d="M600 900H625V925H600V900Z" fill="#D9D9D9"/>
<path d="M600 950H625V975H600V950Z" fill="#D9D9D9"/>
<path d="M575 25H600V50H575V25Z" fill="#D9D9D9"/>
<path d="M575 425H600V450H575V425Z" fill="#D9D9D9"/>
<path d="M575 225H600V250H575V225Z" fill="#D9D9D9"/>
<path d="M575 625H600V650H575V625Z" fill="#D9D9D9"/>
<path d="M575 75H600V100H575V75Z" fill="#D9D9D9"/>
<path d="M575 475H600V500H575V475Z" fill="#D9D9D9"/>
<path d="M575 275H600V300H575V275Z" fill="#D9D9D9"/>
<path d="M575 675H600V700H575V675Z" fill="#D9D9D9"/>
<path d="M575 825H600V850H575V825Z" fill="#D9D9D9"/>
<path d="M575 125H600V150H575V125Z" fill="#D9D9D9"/>
<path d="M575 525H600V550H575V525Z" fill="#D9D9D9"/>
<path d="M575 325H600V350H575V325Z" fill="#D9D9D9"/>
<path d="M575 725H600V750H575V725Z" fill="#D9D9D9"/>
<path d="M575 875H600V900H575V875Z" fill="#D9D9D9"/>
<path d="M575 175H600V200H575V175Z" fill="#D9D9D9"/>
<path d="M575 575H600V600H575V575Z" fill="#D9D9D9"/>
<path d="M575 375H600V400H575V375Z" fill="#D9D9D9"/>
<path d="M575 775H600V800H575V775Z" fill="#D9D9D9"/>
<path d="M575 925H600V950H575V925Z" fill="#D9D9D9"/>
<path d="M575 975H600V1000H575V975Z" fill="#D9D9D9"/>
<path d="M750 0H775V25H750V0Z" fill="#D9D9D9"/>
<path d="M750 400H775V425H750V400Z" fill="#D9D9D9"/>
<path d="M750 200H775V225H750V200Z" fill="#D9D9D9"/>
<path d="M750 600H775V625H750V600Z" fill="#D9D9D9"/>
<path d="M750 50H775V75H750V50Z" fill="#D9D9D9"/>
<path d="M750 450H775V475H750V450Z" fill="#D9D9D9"/>
<path d="M750 250H775V275H750V250Z" fill="#D9D9D9"/>
<path d="M750 650H775V675H750V650Z" fill="#D9D9D9"/>
<path d="M750 800H775V825H750V800Z" fill="#D9D9D9"/>
<path d="M750 100H775V125H750V100Z" fill="#D9D9D9"/>
<path d="M750 500H775V525H750V500Z" fill="#D9D9D9"/>
<path d="M750 300H775V325H750V300Z" fill="#D9D9D9"/>
<path d="M750 700H775V725H750V700Z" fill="#D9D9D9"/>
<path d="M750 850H775V875H750V850Z" fill="#D9D9D9"/>
<path d="M750 150H775V175H750V150Z" fill="#D9D9D9"/>
<path d="M750 550H775V575H750V550Z" fill="#D9D9D9"/>
<path d="M750 350H775V375H750V350Z" fill="#D9D9D9"/>
<path d="M750 750H775V775H750V750Z" fill="#D9D9D9"/>
<path d="M750 900H775V925H750V900Z" fill="#D9D9D9"/>
<path d="M750 950H775V975H750V950Z" fill="#D9D9D9"/>
<path d="M725 25H750V50H725V25Z" fill="#D9D9D9"/>
<path d="M725 425H750V450H725V425Z" fill="#D9D9D9"/>
<path d="M725 225H750V250H725V225Z" fill="#D9D9D9"/>
<path d="M725 625H750V650H725V625Z" fill="#D9D9D9"/>
<path d="M725 75H750V100H725V75Z" fill="#D9D9D9"/>
<path d="M725 475H750V500H725V475Z" fill="#D9D9D9"/>
<path d="M725 275H750V300H725V275Z" fill="#D9D9D9"/>
<path d="M725 675H750V700H725V675Z" fill="#D9D9D9"/>
<path d="M725 825H750V850H725V825Z" fill="#D9D9D9"/>
<path d="M725 125H750V150H725V125Z" fill="#D9D9D9"/>
<path d="M725 525H750V550H725V525Z" fill="#D9D9D9"/>
<path d="M725 325H750V350H725V325Z" fill="#D9D9D9"/>
<path d="M725 725H750V750H725V725Z" fill="#D9D9D9"/>
<path d="M725 875H750V900H725V875Z" fill="#D9D9D9"/>
<path d="M725 175H750V200H725V175Z" fill="#D9D9D9"/>
<path d="M725 575H750V600H725V575Z" fill="#D9D9D9"/>
<path d="M725 375H750V400H725V375Z" fill="#D9D9D9"/>
<path d="M725 775H750V800H725V775Z" fill="#D9D9D9"/>
<path d="M725 925H750V950H725V925Z" fill="#D9D9D9"/>
<path d="M725 975H750V1000H725V975Z" fill="#D9D9D9"/>
<path d="M50 0H75V25H50V0Z" fill="#D9D9D9"/>
<path d="M50 400H75V425H50V400Z" fill="#D9D9D9"/>
<path d="M50 200H75V225H50V200Z" fill="#D9D9D9"/>
<path d="M50 600H75V625H50V600Z" fill="#D9D9D9"/>
<path d="M50 50H75V75H50V50Z" fill="#D9D9D9"/>
<path d="M50 450H75V475H50V450Z" fill="#D9D9D9"/>
<path d="M50 250H75V275H50V250Z" fill="#D9D9D9"/>
<path d="M50 650H75V675H50V650Z" fill="#D9D9D9"/>
<path d="M50 800H75V825H50V800Z" fill="#D9D9D9"/>
<path d="M50 100H75V125H50V100Z" fill="#D9D9D9"/>
<path d="M50 500H75V525H50V500Z" fill="#D9D9D9"/>
<path d="M50 300H75V325H50V300Z" fill="#D9D9D9"/>
<path d="M50 700H75V725H50V700Z" fill="#D9D9D9"/>
<path d="M50 850H75V875H50V850Z" fill="#D9D9D9"/>
<path d="M50 150H75V175H50V150Z" fill="#D9D9D9"/>
<path d="M50 550H75V575H50V550Z" fill="#D9D9D9"/>
<path d="M50 350H75V375H50V350Z" fill="#D9D9D9"/>
<path d="M50 750H75V775H50V750Z" fill="#D9D9D9"/>
<path d="M50 900H75V925H50V900Z" fill="#D9D9D9"/>
<path d="M50 950H75V975H50V950Z" fill="#D9D9D9"/>
<path d="M25 25H50V50H25V25Z" fill="#D9D9D9"/>
<path d="M25 425H50V450H25V425Z" fill="#D9D9D9"/>
<path d="M25 225H50V250H25V225Z" fill="#D9D9D9"/>
<path d="M25 625H50V650H25V625Z" fill="#D9D9D9"/>
<path d="M25 75H50V100H25V75Z" fill="#D9D9D9"/>
<path d="M25 475H50V500H25V475Z" fill="#D9D9D9"/>
<path d="M25 275H50V300H25V275Z" fill="#D9D9D9"/>
<path d="M25 675H50V700H25V675Z" fill="#D9D9D9"/>
<path d="M25 825H50V850H25V825Z" fill="#D9D9D9"/>
<path d="M25 125H50V150H25V125Z" fill="#D9D9D9"/>
<path d="M25 525H50V550H25V525Z" fill="#D9D9D9"/>
<path d="M25 325H50V350H25V325Z" fill="#D9D9D9"/>
<path d="M25 725H50V750H25V725Z" fill="#D9D9D9"/>
<path d="M25 875H50V900H25V875Z" fill="#D9D9D9"/>
<path d="M25 175H50V200H25V175Z" fill="#D9D9D9"/>
<path d="M25 575H50V600H25V575Z" fill="#D9D9D9"/>
<path d="M25 375H50V400H25V375Z" fill="#D9D9D9"/>
<path d="M25 775H50V800H25V775Z" fill="#D9D9D9"/>
<path d="M25 925H50V950H25V925Z" fill="#D9D9D9"/>
<path d="M25 975H50V1000H25V975Z" fill="#D9D9D9"/>
<path d="M350 0H375V25H350V0Z" fill="#D9D9D9"/>
<path d="M350 400H375V425H350V400Z" fill="#D9D9D9"/>
<path d="M350 200H375V225H350V200Z" fill="#D9D9D9"/>
<path d="M350 600H375V625H350V600Z" fill="#D9D9D9"/>
<path d="M350 50H375V75H350V50Z" fill="#D9D9D9"/>
<path d="M350 450H375V475H350V450Z" fill="#D9D9D9"/>
<path d="M350 250H375V275H350V250Z" fill="#D9D9D9"/>
<path d="M350 650H375V675H350V650Z" fill="#D9D9D9"/>
<path d="M350 800H375V825H350V800Z" fill="#D9D9D9"/>
<path d="M350 100H375V125H350V100Z" fill="#D9D9D9"/>
<path d="M350 500H375V525H350V500Z" fill="#D9D9D9"/>
<path d="M350 300H375V325H350V300Z" fill="#D9D9D9"/>
<path d="M350 700H375V725H350V700Z" fill="#D9D9D9"/>
<path d="M350 850H375V875H350V850Z" fill="#D9D9D9"/>
<path d="M350 150H375V175H350V150Z" fill="#D9D9D9"/>
<path d="M350 550H375V575H350V550Z" fill="#D9D9D9"/>
<path d="M350 350H375V375H350V350Z" fill="#D9D9D9"/>
<path d="M350 750H375V775H350V750Z" fill="#D9D9D9"/>
<path d="M350 900H375V925H350V900Z" fill="#D9D9D9"/>
<path d="M350 950H375V975H350V950Z" fill="#D9D9D9"/>
<path d="M325 25H350V50H325V25Z" fill="#D9D9D9"/>
<path d="M325 425H350V450H325V425Z" fill="#D9D9D9"/>
<path d="M325 225H350V250H325V225Z" fill="#D9D9D9"/>
<path d="M325 625H350V650H325V625Z" fill="#D9D9D9"/>
<path d="M325 75H350V100H325V75Z" fill="#D9D9D9"/>
<path d="M325 475H350V500H325V475Z" fill="#D9D9D9"/>
<path d="M325 275H350V300H325V275Z" fill="#D9D9D9"/>
<path d="M325 675H350V700H325V675Z" fill="#D9D9D9"/>
<path d="M325 825H350V850H325V825Z" fill="#D9D9D9"/>
<path d="M325 125H350V150H325V125Z" fill="#D9D9D9"/>
<path d="M325 525H350V550H325V525Z" fill="#D9D9D9"/>
<path d="M325 325H350V350H325V325Z" fill="#D9D9D9"/>
<path d="M325 725H350V750H325V725Z" fill="#D9D9D9"/>
<path d="M325 875H350V900H325V875Z" fill="#D9D9D9"/>
<path d="M325 175H350V200H325V175Z" fill="#D9D9D9"/>
<path d="M325 575H350V600H325V575Z" fill="#D9D9D9"/>
<path d="M325 375H350V400H325V375Z" fill="#D9D9D9"/>
<path d="M325 775H350V800H325V775Z" fill="#D9D9D9"/>
<path d="M325 925H350V950H325V925Z" fill="#D9D9D9"/>
<path d="M325 975H350V1000H325V975Z" fill="#D9D9D9"/>
<path d="M200 0H225V25H200V0Z" fill="#D9D9D9"/>
<path d="M200 400H225V425H200V400Z" fill="#D9D9D9"/>
<path d="M200 200H225V225H200V200Z" fill="#D9D9D9"/>
<path d="M200 600H225V625H200V600Z" fill="#D9D9D9"/>
<path d="M200 50H225V75H200V50Z" fill="#D9D9D9"/>
<path d="M200 450H225V475H200V450Z" fill="#D9D9D9"/>
<path d="M200 250H225V275H200V250Z" fill="#D9D9D9"/>
<path d="M200 650H225V675H200V650Z" fill="#D9D9D9"/>
<path d="M200 800H225V825H200V800Z" fill="#D9D9D9"/>
<path d="M200 100H225V125H200V100Z" fill="#D9D9D9"/>
<path d="M200 500H225V525H200V500Z" fill="#D9D9D9"/>
<path d="M200 300H225V325H200V300Z" fill="#D9D9D9"/>
<path d="M200 700H225V725H200V700Z" fill="#D9D9D9"/>
<path d="M200 850H225V875H200V850Z" fill="#D9D9D9"/>
<path d="M200 150H225V175H200V150Z" fill="#D9D9D9"/>
<path d="M200 550H225V575H200V550Z" fill="#D9D9D9"/>
<path d="M200 350H225V375H200V350Z" fill="#D9D9D9"/>
<path d="M200 750H225V775H200V750Z" fill="#D9D9D9"/>
<path d="M200 900H225V925H200V900Z" fill="#D9D9D9"/>
<path d="M200 950H225V975H200V950Z" fill="#D9D9D9"/>
<path d="M175 25H200V50H175V25Z" fill="#D9D9D9"/>
<path d="M175 425H200V450H175V425Z" fill="#D9D9D9"/>
<path d="M175 225H200V250H175V225Z" fill="#D9D9D9"/>
<path d="M175 625H200V650H175V625Z" fill="#D9D9D9"/>
<path d="M175 75H200V100H175V75Z" fill="#D9D9D9"/>
<path d="M175 475H200V500H175V475Z" fill="#D9D9D9"/>
<path d="M175 275H200V300H175V275Z" fill="#D9D9D9"/>
<path d="M175 675H200V700H175V675Z" fill="#D9D9D9"/>
<path d="M175 825H200V850H175V825Z" fill="#D9D9D9"/>
<path d="M175 125H200V150H175V125Z" fill="#D9D9D9"/>
<path d="M175 525H200V550H175V525Z" fill="#D9D9D9"/>
<path d="M175 325H200V350H175V325Z" fill="#D9D9D9"/>
<path d="M175 725H200V750H175V725Z" fill="#D9D9D9"/>
<path d="M175 875H200V900H175V875Z" fill="#D9D9D9"/>
<path d="M175 175H200V200H175V175Z" fill="#D9D9D9"/>
<path d="M175 575H200V600H175V575Z" fill="#D9D9D9"/>
<path d="M175 375H200V400H175V375Z" fill="#D9D9D9"/>
<path d="M175 775H200V800H175V775Z" fill="#D9D9D9"/>
<path d="M175 925H200V950H175V925Z" fill="#D9D9D9"/>
<path d="M175 975H200V1000H175V975Z" fill="#D9D9D9"/>
<path d="M500 0H525V25H500V0Z" fill="#D9D9D9"/>
<path d="M500 400H525V425H500V400Z" fill="#D9D9D9"/>
<path d="M500 200H525V225H500V200Z" fill="#D9D9D9"/>
<path d="M500 600H525V625H500V600Z" fill="#D9D9D9"/>
<path d="M500 50H525V75H500V50Z" fill="#D9D9D9"/>
<path d="M500 450H525V475H500V450Z" fill="#D9D9D9"/>
<path d="M500 250H525V275H500V250Z" fill="#D9D9D9"/>
<path d="M500 650H525V675H500V650Z" fill="#D9D9D9"/>
<path d="M500 800H525V825H500V800Z" fill="#D9D9D9"/>
<path d="M500 100H525V125H500V100Z" fill="#D9D9D9"/>
<path d="M500 500H525V525H500V500Z" fill="#D9D9D9"/>
<path d="M500 300H525V325H500V300Z" fill="#D9D9D9"/>
<path d="M500 700H525V725H500V700Z" fill="#D9D9D9"/>
<path d="M500 850H525V875H500V850Z" fill="#D9D9D9"/>
<path d="M500 150H525V175H500V150Z" fill="#D9D9D9"/>
<path d="M500 550H525V575H500V550Z" fill="#D9D9D9"/>
<path d="M500 350H525V375H500V350Z" fill="#D9D9D9"/>
<path d="M500 750H525V775H500V750Z" fill="#D9D9D9"/>
<path d="M500 900H525V925H500V900Z" fill="#D9D9D9"/>
<path d="M500 950H525V975H500V950Z" fill="#D9D9D9"/>
<path d="M475 25H500V50H475V25Z" fill="#D9D9D9"/>
<path d="M475 425H500V450H475V425Z" fill="#D9D9D9"/>
<path d="M475 225H500V250H475V225Z" fill="#D9D9D9"/>
<path d="M475 625H500V650H475V625Z" fill="#D9D9D9"/>
<path d="M475 75H500V100H475V75Z" fill="#D9D9D9"/>
<path d="M475 475H500V500H475V475Z" fill="#D9D9D9"/>
<path d="M475 275H500V300H475V275Z" fill="#D9D9D9"/>
<path d="M475 675H500V700H475V675Z" fill="#D9D9D9"/>
<path d="M475 825H500V850H475V825Z" fill="#D9D9D9"/>
<path d="M475 125H500V150H475V125Z" fill="#D9D9D9"/>
<path d="M475 525H500V550H475V525Z" fill="#D9D9D9"/>
<path d="M475 325H500V350H475V325Z" fill="#D9D9D9"/>
<path d="M475 725H500V750H475V725Z" fill="#D9D9D9"/>
<path d="M475 875H500V900H475V875Z" fill="#D9D9D9"/>
<path d="M475 175H500V200H475V175Z" fill="#D9D9D9"/>
<path d="M475 575H500V600H475V575Z" fill="#D9D9D9"/>
<path d="M475 375H500V400H475V375Z" fill="#D9D9D9"/>
<path d="M475 775H500V800H475V775Z" fill="#D9D9D9"/>
<path d="M475 925H500V950H475V925Z" fill="#D9D9D9"/>
<path d="M475 975H500V1000H475V975Z" fill="#D9D9D9"/>
<path d="M650 0H675V25H650V0Z" fill="#D9D9D9"/>
<path d="M650 400H675V425H650V400Z" fill="#D9D9D9"/>
<path d="M650 200H675V225H650V200Z" fill="#D9D9D9"/>
<path d="M650 600H675V625H650V600Z" fill="#D9D9D9"/>
<path d="M650 50H675V75H650V50Z" fill="#D9D9D9"/>
<path d="M650 450H675V475H650V450Z" fill="#D9D9D9"/>
<path d="M650 250H675V275H650V250Z" fill="#D9D9D9"/>
<path d="M650 650H675V675H650V650Z" fill="#D9D9D9"/>
<path d="M650 800H675V825H650V800Z" fill="#D9D9D9"/>
<path d="M650 100H675V125H650V100Z" fill="#D9D9D9"/>
<path d="M650 500H675V525H650V500Z" fill="#D9D9D9"/>
<path d="M650 300H675V325H650V300Z" fill="#D9D9D9"/>
<path d="M650 700H675V725H650V700Z" fill="#D9D9D9"/>
<path d="M650 850H675V875H650V850Z" fill="#D9D9D9"/>
<path d="M650 150H675V175H650V150Z" fill="#D9D9D9"/>
<path d="M650 550H675V575H650V550Z" fill="#D9D9D9"/>
<path d="M650 350H675V375H650V350Z" fill="#D9D9D9"/>
<path d="M650 750H675V775H650V750Z" fill="#D9D9D9"/>
<path d="M650 900H675V925H650V900Z" fill="#D9D9D9"/>
<path d="M650 950H675V975H650V950Z" fill="#D9D9D9"/>
<path d="M625 25H650V50H625V25Z" fill="#D9D9D9"/>
<path d="M625 425H650V450H625V425Z" fill="#D9D9D9"/>
<path d="M625 225H650V250H625V225Z" fill="#D9D9D9"/>
<path d="M625 625H650V650H625V625Z" fill="#D9D9D9"/>
<path d="M625 75H650V100H625V75Z" fill="#D9D9D9"/>
<path d="M625 475H650V500H625V475Z" fill="#D9D9D9"/>
<path d="M625 275H650V300H625V275Z" fill="#D9D9D9"/>
<path d="M625 675H650V700H625V675Z" fill="#D9D9D9"/>
<path d="M625 825H650V850H625V825Z" fill="#D9D9D9"/>
<path d="M625 125H650V150H625V125Z" fill="#D9D9D9"/>
<path d="M625 525H650V550H625V525Z" fill="#D9D9D9"/>
<path d="M625 325H650V350H625V325Z" fill="#D9D9D9"/>
<path d="M625 725H650V750H625V725Z" fill="#D9D9D9"/>
<path d="M625 875H650V900H625V875Z" fill="#D9D9D9"/>
<path d="M625 175H650V200H625V175Z" fill="#D9D9D9"/>
<path d="M625 575H650V600H625V575Z" fill="#D9D9D9"/>
<path d="M625 375H650V400H625V375Z" fill="#D9D9D9"/>
<path d="M625 775H650V800H625V775Z" fill="#D9D9D9"/>
<path d="M625 925H650V950H625V925Z" fill="#D9D9D9"/>
<path d="M625 975H650V1000H625V975Z" fill="#D9D9D9"/>
<path d="M800 0H825V25H800V0Z" fill="#D9D9D9"/>
<path d="M800 400H825V425H800V400Z" fill="#D9D9D9"/>
<path d="M800 200H825V225H800V200Z" fill="#D9D9D9"/>
<path d="M800 600H825V625H800V600Z" fill="#D9D9D9"/>
<path d="M800 50H825V75H800V50Z" fill="#D9D9D9"/>
<path d="M800 450H825V475H800V450Z" fill="#D9D9D9"/>
<path d="M800 250H825V275H800V250Z" fill="#D9D9D9"/>
<path d="M800 650H825V675H800V650Z" fill="#D9D9D9"/>
<path d="M800 800H825V825H800V800Z" fill="#D9D9D9"/>
<path d="M800 100H825V125H800V100Z" fill="#D9D9D9"/>
<path d="M800 500H825V525H800V500Z" fill="#D9D9D9"/>
<path d="M800 300H825V325H800V300Z" fill="#D9D9D9"/>
<path d="M800 700H825V725H800V700Z" fill="#D9D9D9"/>
<path d="M800 850H825V875H800V850Z" fill="#D9D9D9"/>
<path d="M800 150H825V175H800V150Z" fill="#D9D9D9"/>
<path d="M800 550H825V575H800V550Z" fill="#D9D9D9"/>
<path d="M800 350H825V375H800V350Z" fill="#D9D9D9"/>
<path d="M800 750H825V775H800V750Z" fill="#D9D9D9"/>
<path d="M800 900H825V925H800V900Z" fill="#D9D9D9"/>
<path d="M800 950H825V975H800V950Z" fill="#D9D9D9"/>
<path d="M775 25H800V50H775V25Z" fill="#D9D9D9"/>
<path d="M775 425H800V450H775V425Z" fill="#D9D9D9"/>
<path d="M775 225H800V250H775V225Z" fill="#D9D9D9"/>
<path d="M775 625H800V650H775V625Z" fill="#D9D9D9"/>
<path d="M775 75H800V100H775V75Z" fill="#D9D9D9"/>
<path d="M775 475H800V500H775V475Z" fill="#D9D9D9"/>
<path d="M775 275H800V300H775V275Z" fill="#D9D9D9"/>
<path d="M775 675H800V700H775V675Z" fill="#D9D9D9"/>
<path d="M775 825H800V850H775V825Z" fill="#D9D9D9"/>
<path d="M775 125H800V150H775V125Z" fill="#D9D9D9"/>
<path d="M775 525H800V550H775V525Z" fill="#D9D9D9"/>
<path d="M775 325H800V350H775V325Z" fill="#D9D9D9"/>
<path d="M775 725H800V750H775V725Z" fill="#D9D9D9"/>
<path d="M775 875H800V900H775V875Z" fill="#D9D9D9"/>
<path d="M775 175H800V200H775V175Z" fill="#D9D9D9"/>
<path d="M775 575H800V600H775V575Z" fill="#D9D9D9"/>
<path d="M775 375H800V400H775V375Z" fill="#D9D9D9"/>
<path d="M775 775H800V800H775V775Z" fill="#D9D9D9"/>
<path d="M775 925H800V950H775V925Z" fill="#D9D9D9"/>
<path d="M775 975H800V1000H775V975Z" fill="#D9D9D9"/>
<path d="M900 0H925V25H900V0Z" fill="#D9D9D9"/>
<path d="M900 400H925V425H900V400Z" fill="#D9D9D9"/>
<path d="M900 200H925V225H900V200Z" fill="#D9D9D9"/>
<path d="M900 600H925V625H900V600Z" fill="#D9D9D9"/>
<path d="M900 50H925V75H900V50Z" fill="#D9D9D9"/>
<path d="M900 450H925V475H900V450Z" fill="#D9D9D9"/>
<path d="M900 250H925V275H900V250Z" fill="#D9D9D9"/>
<path d="M900 650H925V675H900V650Z" fill="#D9D9D9"/>
<path d="M900 800H925V825H900V800Z" fill="#D9D9D9"/>
<path d="M900 100H925V125H900V100Z" fill="#D9D9D9"/>
<path d="M900 500H925V525H900V500Z" fill="#D9D9D9"/>
<path d="M900 300H925V325H900V300Z" fill="#D9D9D9"/>
<path d="M900 700H925V725H900V700Z" fill="#D9D9D9"/>
<path d="M900 850H925V875H900V850Z" fill="#D9D9D9"/>
<path d="M900 150H925V175H900V150Z" fill="#D9D9D9"/>
<path d="M900 550H925V575H900V550Z" fill="#D9D9D9"/>
<path d="M900 350H925V375H900V350Z" fill="#D9D9D9"/>
<path d="M900 750H925V775H900V750Z" fill="#D9D9D9"/>
<path d="M900 900H925V925H900V900Z" fill="#D9D9D9"/>
<path d="M900 950H925V975H900V950Z" fill="#D9D9D9"/>
<path d="M875 25H900V50H875V25Z" fill="#D9D9D9"/>
<path d="M875 425H900V450H875V425Z" fill="#D9D9D9"/>
<path d="M875 225H900V250H875V225Z" fill="#D9D9D9"/>
<path d="M875 625H900V650H875V625Z" fill="#D9D9D9"/>
<path d="M875 75H900V100H875V75Z" fill="#D9D9D9"/>
<path d="M875 475H900V500H875V475Z" fill="#D9D9D9"/>
<path d="M875 275H900V300H875V275Z" fill="#D9D9D9"/>
<path d="M875 675H900V700H875V675Z" fill="#D9D9D9"/>
<path d="M875 825H900V850H875V825Z" fill="#D9D9D9"/>
<path d="M875 125H900V150H875V125Z" fill="#D9D9D9"/>
<path d="M875 525H900V550H875V525Z" fill="#D9D9D9"/>
<path d="M875 325H900V350H875V325Z" fill="#D9D9D9"/>
<path d="M875 725H900V750H875V725Z" fill="#D9D9D9"/>
<path d="M875 875H900V900H875V875Z" fill="#D9D9D9"/>
<path d="M875 175H900V200H875V175Z" fill="#D9D9D9"/>
<path d="M875 575H900V600H875V575Z" fill="#D9D9D9"/>
<path d="M875 375H900V400H875V375Z" fill="#D9D9D9"/>
<path d="M875 775H900V800H875V775Z" fill="#D9D9D9"/>
<path d="M875 925H900V950H875V925Z" fill="#D9D9D9"/>
<path d="M875 975H900V1000H875V975Z" fill="#D9D9D9"/>
<path d="M100 0H125V25H100V0Z" fill="#D9D9D9"/>
<path d="M100 400H125V425H100V400Z" fill="#D9D9D9"/>
<path d="M100 200H125V225H100V200Z" fill="#D9D9D9"/>
<path d="M100 600H125V625H100V600Z" fill="#D9D9D9"/>
<path d="M100 50H125V75H100V50Z" fill="#D9D9D9"/>
<path d="M100 450H125V475H100V450Z" fill="#D9D9D9"/>
<path d="M100 250H125V275H100V250Z" fill="#D9D9D9"/>
<path d="M100 650H125V675H100V650Z" fill="#D9D9D9"/>
<path d="M100 800H125V825H100V800Z" fill="#D9D9D9"/>
<path d="M100 100H125V125H100V100Z" fill="#D9D9D9"/>
<path d="M100 500H125V525H100V500Z" fill="#D9D9D9"/>
<path d="M100 300H125V325H100V300Z" fill="#D9D9D9"/>
<path d="M100 700H125V725H100V700Z" fill="#D9D9D9"/>
<path d="M100 850H125V875H100V850Z" fill="#D9D9D9"/>
<path d="M100 150H125V175H100V150Z" fill="#D9D9D9"/>
<path d="M100 550H125V575H100V550Z" fill="#D9D9D9"/>
<path d="M100 350H125V375H100V350Z" fill="#D9D9D9"/>
<path d="M100 750H125V775H100V750Z" fill="#D9D9D9"/>
<path d="M100 900H125V925H100V900Z" fill="#D9D9D9"/>
<path d="M100 950H125V975H100V950Z" fill="#D9D9D9"/>
<path d="M75 25H100V50H75V25Z" fill="#D9D9D9"/>
<path d="M75 425H100V450H75V425Z" fill="#D9D9D9"/>
<path d="M75 225H100V250H75V225Z" fill="#D9D9D9"/>
<path d="M75 625H100V650H75V625Z" fill="#D9D9D9"/>
<path d="M75 75H100V100H75V75Z" fill="#D9D9D9"/>
<path d="M75 475H100V500H75V475Z" fill="#D9D9D9"/>
<path d="M75 275H100V300H75V275Z" fill="#D9D9D9"/>
<path d="M75 675H100V700H75V675Z" fill="#D9D9D9"/>
<path d="M75 825H100V850H75V825Z" fill="#D9D9D9"/>
<path d="M75 125H100V150H75V125Z" fill="#D9D9D9"/>
<path d="M75 525H100V550H75V525Z" fill="#D9D9D9"/>
<path d="M75 325H100V350H75V325Z" fill="#D9D9D9"/>
<path d="M75 725H100V750H75V725Z" fill="#D9D9D9"/>
<path d="M75 875H100V900H75V875Z" fill="#D9D9D9"/>
<path d="M75 175H100V200H75V175Z" fill="#D9D9D9"/>
<path d="M75 575H100V600H75V575Z" fill="#D9D9D9"/>
<path d="M75 375H100V400H75V375Z" fill="#D9D9D9"/>
<path d="M75 775H100V800H75V775Z" fill="#D9D9D9"/>
<path d="M75 925H100V950H75V925Z" fill="#D9D9D9"/>
<path d="M75 975H100V1000H75V975Z" fill="#D9D9D9"/>
<path d="M400 0H425V25H400V0Z" fill="#D9D9D9"/>
<path d="M400 400H425V425H400V400Z" fill="#D9D9D9"/>
<path d="M400 200H425V225H400V200Z" fill="#D9D9D9"/>
<path d="M400 600H425V625H400V600Z" fill="#D9D9D9"/>
<path d="M400 50H425V75H400V50Z" fill="#D9D9D9"/>
<path d="M400 450H425V475H400V450Z" fill="#D9D9D9"/>
<path d="M400 250H425V275H400V250Z" fill="#D9D9D9"/>
<path d="M400 650H425V675H400V650Z" fill="#D9D9D9"/>
<path d="M400 800H425V825H400V800Z" fill="#D9D9D9"/>
<path d="M400 100H425V125H400V100Z" fill="#D9D9D9"/>
<path d="M400 500H425V525H400V500Z" fill="#D9D9D9"/>
<path d="M400 300H425V325H400V300Z" fill="#D9D9D9"/>
<path d="M400 700H425V725H400V700Z" fill="#D9D9D9"/>
<path d="M400 850H425V875H400V850Z" fill="#D9D9D9"/>
<path d="M400 150H425V175H400V150Z" fill="#D9D9D9"/>
<path d="M400 550H425V575H400V550Z" fill="#D9D9D9"/>
<path d="M400 350H425V375H400V350Z" fill="#D9D9D9"/>
<path d="M400 750H425V775H400V750Z" fill="#D9D9D9"/>
<path d="M400 900H425V925H400V900Z" fill="#D9D9D9"/>
<path d="M400 950H425V975H400V950Z" fill="#D9D9D9"/>
<path d="M375 25H400V50H375V25Z" fill="#D9D9D9"/>
<path d="M375 425H400V450H375V425Z" fill="#D9D9D9"/>
<path d="M375 225H400V250H375V225Z" fill="#D9D9D9"/>
<path d="M375 625H400V650H375V625Z" fill="#D9D9D9"/>
<path d="M375 75H400V100H375V75Z" fill="#D9D9D9"/>
<path d="M375 475H400V500H375V475Z" fill="#D9D9D9"/>
<path d="M375 275H400V300H375V275Z" fill="#D9D9D9"/>
<path d="M375 675H400V700H375V675Z" fill="#D9D9D9"/>
<path d="M375 825H400V850H375V825Z" fill="#D9D9D9"/>
<path d="M375 125H400V150H375V125Z" fill="#D9D9D9"/>
<path d="M375 525H400V550H375V525Z" fill="#D9D9D9"/>
<path d="M375 325H400V350H375V325Z" fill="#D9D9D9"/>
<path d="M375 725H400V750H375V725Z" fill="#D9D9D9"/>
<path d="M375 875H400V900H375V875Z" fill="#D9D9D9"/>
<path d="M375 175H400V200H375V175Z" fill="#D9D9D9"/>
<path d="M375 575H400V600H375V575Z" fill="#D9D9D9"/>
<path d="M375 375H400V400H375V375Z" fill="#D9D9D9"/>
<path d="M375 775H400V800H375V775Z" fill="#D9D9D9"/>
<path d="M375 925H400V950H375V925Z" fill="#D9D9D9"/>
<path d="M375 975H400V1000H375V975Z" fill="#D9D9D9"/>
<path d="M250 0H275V25H250V0Z" fill="#D9D9D9"/>
<path d="M250 400H275V425H250V400Z" fill="#D9D9D9"/>
<path d="M250 200H275V225H250V200Z" fill="#D9D9D9"/>
<path d="M250 600H275V625H250V600Z" fill="#D9D9D9"/>
<path d="M250 50H275V75H250V50Z" fill="#D9D9D9"/>
<path d="M250 450H275V475H250V450Z" fill="#D9D9D9"/>
<path d="M250 250H275V275H250V250Z" fill="#D9D9D9"/>
<path d="M250 650H275V675H250V650Z" fill="#D9D9D9"/>
<path d="M250 800H275V825H250V800Z" fill="#D9D9D9"/>
<path d="M250 100H275V125H250V100Z" fill="#D9D9D9"/>
<path d="M250 500H275V525H250V500Z" fill="#D9D9D9"/>
<path d="M250 300H275V325H250V300Z" fill="#D9D9D9"/>
<path d="M250 700H275V725H250V700Z" fill="#D9D9D9"/>
<path d="M250 850H275V875H250V850Z" fill="#D9D9D9"/>
<path d="M250 150H275V175H250V150Z" fill="#D9D9D9"/>
<path d="M250 550H275V575H250V550Z" fill="#D9D9D9"/>
<path d="M250 350H275V375H250V350Z" fill="#D9D9D9"/>
<path d="M250 750H275V775H250V750Z" fill="#D9D9D9"/>
<path d="M250 900H275V925H250V900Z" fill="#D9D9D9"/>
<path d="M250 950H275V975H250V950Z" fill="#D9D9D9"/>
<path d="M225 25H250V50H225V25Z" fill="#D9D9D9"/>
<path d="M225 425H250V450H225V425Z" fill="#D9D9D9"/>
<path d="M225 225H250V250H225V225Z" fill="#D9D9D9"/>
<path d="M225 625H250V650H225V625Z" fill="#D9D9D9"/>
<path d="M225 75H250V100H225V75Z" fill="#D9D9D9"/>
<path d="M225 475H250V500H225V475Z" fill="#D9D9D9"/>
<path d="M225 275H250V300H225V275Z" fill="#D9D9D9"/>
<path d="M225 675H250V700H225V675Z" fill="#D9D9D9"/>
<path d="M225 825H250V850H225V825Z" fill="#D9D9D9"/>
<path d="M225 125H250V150H225V125Z" fill="#D9D9D9"/>
<path d="M225 525H250V550H225V525Z" fill="#D9D9D9"/>
<path d="M225 325H250V350H225V325Z" fill="#D9D9D9"/>
<path d="M225 725H250V750H225V725Z" fill="#D9D9D9"/>
<path d="M225 875H250V900H225V875Z" fill="#D9D9D9"/>
<path d="M225 175H250V200H225V175Z" fill="#D9D9D9"/>
<path d="M225 575H250V600H225V575Z" fill="#D9D9D9"/>
<path d="M225 375H250V400H225V375Z" fill="#D9D9D9"/>
<path d="M225 775H250V800H225V775Z" fill="#D9D9D9"/>
<path d="M225 925H250V950H225V925Z" fill="#D9D9D9"/>
<path d="M225 975H250V1000H225V975Z" fill="#D9D9D9"/>
<path d="M550 0H575V25H550V0Z" fill="#D9D9D9"/>
<path d="M550 400H575V425H550V400Z" fill="#D9D9D9"/>
<path d="M550 200H575V225H550V200Z" fill="#D9D9D9"/>
<path d="M550 600H575V625H550V600Z" fill="#D9D9D9"/>
<path d="M550 50H575V75H550V50Z" fill="#D9D9D9"/>
<path d="M550 450H575V475H550V450Z" fill="#D9D9D9"/>
<path d="M550 250H575V275H550V250Z" fill="#D9D9D9"/>
<path d="M550 650H575V675H550V650Z" fill="#D9D9D9"/>
<path d="M550 800H575V825H550V800Z" fill="#D9D9D9"/>
<path d="M550 100H575V125H550V100Z" fill="#D9D9D9"/>
<path d="M550 500H575V525H550V500Z" fill="#D9D9D9"/>
<path d="M550 300H575V325H550V300Z" fill="#D9D9D9"/>
<path d="M550 700H575V725H550V700Z" fill="#D9D9D9"/>
<path d="M550 850H575V875H550V850Z" fill="#D9D9D9"/>
<path d="M550 150H575V175H550V150Z" fill="#D9D9D9"/>
<path d="M550 550H575V575H550V550Z" fill="#D9D9D9"/>
<path d="M550 350H575V375H550V350Z" fill="#D9D9D9"/>
<path d="M550 750H575V775H550V750Z" fill="#D9D9D9"/>
<path d="M550 900H575V925H550V900Z" fill="#D9D9D9"/>
<path d="M550 950H575V975H550V950Z" fill="#D9D9D9"/>
<path d="M525 25H550V50H525V25Z" fill="#D9D9D9"/>
<path d="M525 425H550V450H525V425Z" fill="#D9D9D9"/>
<path d="M525 225H550V250H525V225Z" fill="#D9D9D9"/>
<path d="M525 625H550V650H525V625Z" fill="#D9D9D9"/>
<path d="M525 75H550V100H525V75Z" fill="#D9D9D9"/>
<path d="M525 475H550V500H525V475Z" fill="#D9D9D9"/>
<path d="M525 275H550V300H525V275Z" fill="#D9D9D9"/>
<path d="M525 675H550V700H525V675Z" fill="#D9D9D9"/>
<path d="M525 825H550V850H525V825Z" fill="#D9D9D9"/>
<path d="M525 125H550V150H525V125Z" fill="#D9D9D9"/>
<path d="M525 525H550V550H525V525Z" fill="#D9D9D9"/>
<path d="M525 325H550V350H525V325Z" fill="#D9D9D9"/>
<path d="M525 725H550V750H525V725Z" fill="#D9D9D9"/>
<path d="M525 875H550V900H525V875Z" fill="#D9D9D9"/>
<path d="M525 175H550V200H525V175Z" fill="#D9D9D9"/>
<path d="M525 575H550V600H525V575Z" fill="#D9D9D9"/>
<path d="M525 375H550V400H525V375Z" fill="#D9D9D9"/>
<path d="M525 775H550V800H525V775Z" fill="#D9D9D9"/>
<path d="M525 925H550V950H525V925Z" fill="#D9D9D9"/>
<path d="M525 975H550V1000H525V975Z" fill="#D9D9D9"/>
<path d="M700 0H725V25H700V0Z" fill="#D9D9D9"/>
<path d="M700 400H725V425H700V400Z" fill="#D9D9D9"/>
<path d="M700 200H725V225H700V200Z" fill="#D9D9D9"/>
<path d="M700 600H725V625H700V600Z" fill="#D9D9D9"/>
<path d="M700 50H725V75H700V50Z" fill="#D9D9D9"/>
<path d="M700 450H725V475H700V450Z" fill="#D9D9D9"/>
<path d="M700 250H725V275H700V250Z" fill="#D9D9D9"/>
<path d="M700 650H725V675H700V650Z" fill="#D9D9D9"/>
<path d="M700 800H725V825H700V800Z" fill="#D9D9D9"/>
<path d="M700 100H725V125H700V100Z" fill="#D9D9D9"/>
<path d="M700 500H725V525H700V500Z" fill="#D9D9D9"/>
<path d="M700 300H725V325H700V300Z" fill="#D9D9D9"/>
<path d="M700 700H725V725H700V700Z" fill="#D9D9D9"/>
<path d="M700 850H725V875H700V850Z" fill="#D9D9D9"/>
<path d="M700 150H725V175H700V150Z" fill="#D9D9D9"/>
<path d="M700 550H725V575H700V550Z" fill="#D9D9D9"/>
<path d="M700 350H725V375H700V350Z" fill="#D9D9D9"/>
<path d="M700 750H725V775H700V750Z" fill="#D9D9D9"/>
<path d="M700 900H725V925H700V900Z" fill="#D9D9D9"/>
<path d="M700 950H725V975H700V950Z" fill="#D9D9D9"/>
<path d="M675 25H700V50H675V25Z" fill="#D9D9D9"/>
<path d="M675 425H700V450H675V425Z" fill="#D9D9D9"/>
<path d="M675 225H700V250H675V225Z" fill="#D9D9D9"/>
<path d="M675 625H700V650H675V625Z" fill="#D9D9D9"/>
<path d="M675 75H700V100H675V75Z" fill="#D9D9D9"/>
<path d="M675 475H700V500H675V475Z" fill="#D9D9D9"/>
<path d="M675 275H700V300H675V275Z" fill="#D9D9D9"/>
<path d="M675 675H700V700H675V675Z" fill="#D9D9D9"/>
<path d="M675 825H700V850H675V825Z" fill="#D9D9D9"/>
<path d="M675 125H700V150H675V125Z" fill="#D9D9D9"/>
<path d="M675 525H700V550H675V525Z" fill="#D9D9D9"/>
<path d="M675 325H700V350H675V325Z" fill="#D9D9D9"/>
<path d="M675 725H700V750H675V725Z" fill="#D9D9D9"/>
<path d="M675 875H700V900H675V875Z" fill="#D9D9D9"/>
<path d="M675 175H700V200H675V175Z" fill="#D9D9D9"/>
<path d="M675 575H700V600H675V575Z" fill="#D9D9D9"/>
<path d="M675 375H700V400H675V375Z" fill="#D9D9D9"/>
<path d="M675 775H700V800H675V775Z" fill="#D9D9D9"/>
<path d="M675 925H700V950H675V925Z" fill="#D9D9D9"/>
<path d="M675 975H700V1000H675V975Z" fill="#D9D9D9"/>
<path d="M850 0H875V25H850V0Z" fill="#D9D9D9"/>
<path d="M850 400H875V425H850V400Z" fill="#D9D9D9"/>
<path d="M850 200H875V225H850V200Z" fill="#D9D9D9"/>
<path d="M850 600H875V625H850V600Z" fill="#D9D9D9"/>
<path d="M850 50H875V75H850V50Z" fill="#D9D9D9"/>
<path d="M850 450H875V475H850V450Z" fill="#D9D9D9"/>
<path d="M850 250H875V275H850V250Z" fill="#D9D9D9"/>
<path d="M850 650H875V675H850V650Z" fill="#D9D9D9"/>
<path d="M850 800H875V825H850V800Z" fill="#D9D9D9"/>
<path d="M850 100H875V125H850V100Z" fill="#D9D9D9"/>
<path d="M850 500H875V525H850V500Z" fill="#D9D9D9"/>
<path d="M850 300H875V325H850V300Z" fill="#D9D9D9"/>
<path d="M850 700H875V725H850V700Z" fill="#D9D9D9"/>
<path d="M850 850H875V875H850V850Z" fill="#D9D9D9"/>
<path d="M850 150H875V175H850V150Z" fill="#D9D9D9"/>
<path d="M850 550H875V575H850V550Z" fill="#D9D9D9"/>
<path d="M850 350H875V375H850V350Z" fill="#D9D9D9"/>
<path d="M850 750H875V775H850V750Z" fill="#D9D9D9"/>
<path d="M850 900H875V925H850V900Z" fill="#D9D9D9"/>
<path d="M850 950H875V975H850V950Z" fill="#D9D9D9"/>
<path d="M825 25H850V50H825V25Z" fill="#D9D9D9"/>
<path d="M825 425H850V450H825V425Z" fill="#D9D9D9"/>
<path d="M825 225H850V250H825V225Z" fill="#D9D9D9"/>
<path d="M825 625H850V650H825V625Z" fill="#D9D9D9"/>
<path d="M825 75H850V100H825V75Z" fill="#D9D9D9"/>
<path d="M825 475H850V500H825V475Z" fill="#D9D9D9"/>
<path d="M825 275H850V300H825V275Z" fill="#D9D9D9"/>
<path d="M825 675H850V700H825V675Z" fill="#D9D9D9"/>
<path d="M825 825H850V850H825V825Z" fill="#D9D9D9"/>
<path d="M825 125H850V150H825V125Z" fill="#D9D9D9"/>
<path d="M825 525H850V550H825V525Z" fill="#D9D9D9"/>
<path d="M825 325H850V350H825V325Z" fill="#D9D9D9"/>
<path d="M825 725H850V750H825V725Z" fill="#D9D9D9"/>
<path d="M825 875H850V900H825V875Z" fill="#D9D9D9"/>
<path d="M825 175H850V200H825V175Z" fill="#D9D9D9"/>
<path d="M825 575H850V600H825V575Z" fill="#D9D9D9"/>
<path d="M825 375H850V400H825V375Z" fill="#D9D9D9"/>
<path d="M825 775H850V800H825V775Z" fill="#D9D9D9"/>
<path d="M825 925H850V950H825V925Z" fill="#D9D9D9"/>
<path d="M825 975H850V1000H825V975Z" fill="#D9D9D9"/>
<path d="M950 0H975V25H950V0Z" fill="#D9D9D9"/>
<path d="M950 400H975V425H950V400Z" fill="#D9D9D9"/>
<path d="M950 200H975V225H950V200Z" fill="#D9D9D9"/>
<path d="M950 600H975V625H950V600Z" fill="#D9D9D9"/>
<path d="M950 50H975V75H950V50Z" fill="#D9D9D9"/>
<path d="M950 450H975V475H950V450Z" fill="#D9D9D9"/>
<path d="M950 250H975V275H950V250Z" fill="#D9D9D9"/>
<path d="M950 650H975V675H950V650Z" fill="#D9D9D9"/>
<path d="M950 800H975V825H950V800Z" fill="#D9D9D9"/>
<path d="M950 100H975V125H950V100Z" fill="#D9D9D9"/>
<path d="M950 500H975V525H950V500Z" fill="#D9D9D9"/>
<path d="M950 300H975V325H950V300Z" fill="#D9D9D9"/>
<path d="M950 700H975V725H950V700Z" fill="#D9D9D9"/>
<path d="M950 850H975V875H950V850Z" fill="#D9D9D9"/>
<path d="M950 150H975V175H950V150Z" fill="#D9D9D9"/>
<path d="M950 550H975V575H950V550Z" fill="#D9D9D9"/>
<path d="M950 350H975V375H950V350Z" fill="#D9D9D9"/>
<path d="M950 750H975V775H950V750Z" fill="#D9D9D9"/>
<path d="M950 900H975V925H950V900Z" fill="#D9D9D9"/>
<path d="M950 950H975V975H950V950Z" fill="#D9D9D9"/>
<path d="M975 25H1000V50H975V25Z" fill="#D9D9D9"/>
<path d="M975 425H1000V450H975V425Z" fill="#D9D9D9"/>
<path d="M975 225H1000V250H975V225Z" fill="#D9D9D9"/>
<path d="M975 625H1000V650H975V625Z" fill="#D9D9D9"/>
<path d="M975 75H1000V100H975V75Z" fill="#D9D9D9"/>
<path d="M975 475H1000V500H975V475Z" fill="#D9D9D9"/>
<path d="M975 275H1000V300H975V275Z" fill="#D9D9D9"/>
<path d="M975 675H1000V700H975V675Z" fill="#D9D9D9"/>
<path d="M975 825H1000V850H975V825Z" fill="#D9D9D9"/>
<path d="M975 125H1000V150H975V125Z" fill="#D9D9D9"/>
<path d="M975 525H1000V550H975V525Z" fill="#D9D9D9"/>
<path d="M975 325H1000V350H975V325Z" fill="#D9D9D9"/>
<path d="M975 725H1000V750H975V725Z" fill="#D9D9D9"/>
<path d="M975 875H1000V900H975V875Z" fill="#D9D9D9"/>
<path d="M975 175H1000V200H975V175Z" fill="#D9D9D9"/>
<path d="M975 575H1000V600H975V575Z" fill="#D9D9D9"/>
<path d="M975 375H1000V400H975V375Z" fill="#D9D9D9"/>
<path d="M975 775H1000V800H975V775Z" fill="#D9D9D9"/>
<path d="M975 925H1000V950H975V925Z" fill="#D9D9D9"/>
<path d="M975 975H1000V1000H975V975Z" fill="#D9D9D9"/>
<path d="M925 25H950V50H925V25Z" fill="#D9D9D9"/>
<path d="M925 425H950V450H925V425Z" fill="#D9D9D9"/>
<path d="M925 225H950V250H925V225Z" fill="#D9D9D9"/>
<path d="M925 625H950V650H925V625Z" fill="#D9D9D9"/>
<path d="M925 75H950V100H925V75Z" fill="#D9D9D9"/>
<path d="M925 475H950V500H925V475Z" fill="#D9D9D9"/>
<path d="M925 275H950V300H925V275Z" fill="#D9D9D9"/>
<path d="M925 675H950V700H925V675Z" fill="#D9D9D9"/>
<path d="M925 825H950V850H925V825Z" fill="#D9D9D9"/>
<path d="M925 125H950V150H925V125Z" fill="#D9D9D9"/>
<path d="M925 525H950V550H925V525Z" fill="#D9D9D9"/>
<path d="M925 325H950V350H925V325Z" fill="#D9D9D9"/>
<path d="M925 725H950V750H925V725Z" fill="#D9D9D9"/>
<path d="M925 875H950V900H925V875Z" fill="#D9D9D9"/>
<path d="M925 175H950V200H925V175Z" fill="#D9D9D9"/>
<path d="M925 575H950V600H925V575Z" fill="#D9D9D9"/>
<path d="M925 375H950V400H925V375Z" fill="#D9D9D9"/>
<path d="M925 775H950V800H925V775Z" fill="#D9D9D9"/>
<path d="M925 925H950V950H925V925Z" fill="#D9D9D9"/>
<path d="M925 975H950V1000H925V975Z" fill="#D9D9D9"/>
<path d="M25 0H50V25H25V0Z" fill="white"/>
<path d="M25 400H50V425H25V400Z" fill="white"/>
<path d="M25 200H50V225H25V200Z" fill="white"/>
<path d="M25 600H50V625H25V600Z" fill="white"/>
<path d="M25 50H50V75H25V50Z" fill="white"/>
<path d="M25 450H50V475H25V450Z" fill="white"/>
<path d="M25 250H50V275H25V250Z" fill="white"/>
<path d="M25 650H50V675H25V650Z" fill="white"/>
<path d="M25 800H50V825H25V800Z" fill="white"/>
<path d="M25 100H50V125H25V100Z" fill="white"/>
<path d="M25 500H50V525H25V500Z" fill="white"/>
<path d="M25 300H50V325H25V300Z" fill="white"/>
<path d="M25 700H50V725H25V700Z" fill="white"/>
<path d="M25 850H50V875H25V850Z" fill="white"/>
<path d="M25 150H50V175H25V150Z" fill="white"/>
<path d="M25 550H50V575H25V550Z" fill="white"/>
<path d="M25 350H50V375H25V350Z" fill="white"/>
<path d="M25 750H50V775H25V750Z" fill="white"/>
<path d="M25 900H50V925H25V900Z" fill="white"/>
<path d="M25 950H50V975H25V950Z" fill="white"/>
<path d="M325 0H350V25H325V0Z" fill="white"/>
<path d="M325 400H350V425H325V400Z" fill="white"/>
<path d="M325 200H350V225H325V200Z" fill="white"/>
<path d="M325 600H350V625H325V600Z" fill="white"/>
<path d="M325 50H350V75H325V50Z" fill="white"/>
<path d="M325 450H350V475H325V450Z" fill="white"/>
<path d="M325 250H350V275H325V250Z" fill="white"/>
<path d="M325 650H350V675H325V650Z" fill="white"/>
<path d="M325 800H350V825H325V800Z" fill="white"/>
<path d="M325 100H350V125H325V100Z" fill="white"/>
<path d="M325 500H350V525H325V500Z" fill="white"/>
<path d="M325 300H350V325H325V300Z" fill="white"/>
<path d="M325 700H350V725H325V700Z" fill="white"/>
<path d="M325 850H350V875H325V850Z" fill="white"/>
<path d="M325 150H350V175H325V150Z" fill="white"/>
<path d="M325 550H350V575H325V550Z" fill="white"/>
<path d="M325 350H350V375H325V350Z" fill="white"/>
<path d="M325 750H350V775H325V750Z" fill="white"/>
<path d="M325 900H350V925H325V900Z" fill="white"/>
<path d="M325 950H350V975H325V950Z" fill="white"/>
<path d="M300 25H325V50H300V25Z" fill="white"/>
<path d="M300 425H325V450H300V425Z" fill="white"/>
<path d="M300 225H325V250H300V225Z" fill="white"/>
<path d="M300 625H325V650H300V625Z" fill="white"/>
<path d="M300 75H325V100H300V75Z" fill="white"/>
<path d="M300 475H325V500H300V475Z" fill="white"/>
<path d="M300 275H325V300H300V275Z" fill="white"/>
<path d="M300 675H325V700H300V675Z" fill="white"/>
<path d="M300 825H325V850H300V825Z" fill="white"/>
<path d="M300 125H325V150H300V125Z" fill="white"/>
<path d="M300 525H325V550H300V525Z" fill="white"/>
<path d="M300 325H325V350H300V325Z" fill="white"/>
<path d="M300 725H325V750H300V725Z" fill="white"/>
<path d="M300 875H325V900H300V875Z" fill="white"/>
<path d="M300 175H325V200H300V175Z" fill="white"/>
<path d="M300 575H325V600H300V575Z" fill="white"/>
<path d="M300 375H325V400H300V375Z" fill="white"/>
<path d="M300 775H325V800H300V775Z" fill="white"/>
<path d="M300 925H325V950H300V925Z" fill="white"/>
<path d="M300 975H325V1000H300V975Z" fill="white"/>
<path d="M175 0H200V25H175V0Z" fill="white"/>
<path d="M175 400H200V425H175V400Z" fill="white"/>
<path d="M175 200H200V225H175V200Z" fill="white"/>
<path d="M175 600H200V625H175V600Z" fill="white"/>
<path d="M175 50H200V75H175V50Z" fill="white"/>
<path d="M175 450H200V475H175V450Z" fill="white"/>
<path d="M175 250H200V275H175V250Z" fill="white"/>
<path d="M175 650H200V675H175V650Z" fill="white"/>
<path d="M175 800H200V825H175V800Z" fill="white"/>
<path d="M175 100H200V125H175V100Z" fill="white"/>
<path d="M175 500H200V525H175V500Z" fill="white"/>
<path d="M175 300H200V325H175V300Z" fill="white"/>
<path d="M175 700H200V725H175V700Z" fill="white"/>
<path d="M175 850H200V875H175V850Z" fill="white"/>
<path d="M175 150H200V175H175V150Z" fill="white"/>
<path d="M175 550H200V575H175V550Z" fill="white"/>
<path d="M175 350H200V375H175V350Z" fill="white"/>
<path d="M175 750H200V775H175V750Z" fill="white"/>
<path d="M175 900H200V925H175V900Z" fill="white"/>
<path d="M175 950H200V975H175V950Z" fill="white"/>
<path d="M150 25H175V50H150V25Z" fill="white"/>
<path d="M150 425H175V450H150V425Z" fill="white"/>
<path d="M150 225H175V250H150V225Z" fill="white"/>
<path d="M150 625H175V650H150V625Z" fill="white"/>
<path d="M150 75H175V100H150V75Z" fill="white"/>
<path d="M150 475H175V500H150V475Z" fill="white"/>
<path d="M150 275H175V300H150V275Z" fill="white"/>
<path d="M150 675H175V700H150V675Z" fill="white"/>
<path d="M150 825H175V850H150V825Z" fill="white"/>
<path d="M150 125H175V150H150V125Z" fill="white"/>
<path d="M150 525H175V550H150V525Z" fill="white"/>
<path d="M150 325H175V350H150V325Z" fill="white"/>
<path d="M150 725H175V750H150V725Z" fill="white"/>
<path d="M150 875H175V900H150V875Z" fill="white"/>
<path d="M150 175H175V200H150V175Z" fill="white"/>
<path d="M150 575H175V600H150V575Z" fill="white"/>
<path d="M150 375H175V400H150V375Z" fill="white"/>
<path d="M150 775H175V800H150V775Z" fill="white"/>
<path d="M150 925H175V950H150V925Z" fill="white"/>
<path d="M150 975H175V1000H150V975Z" fill="white"/>
<path d="M475 0H500V25H475V0Z" fill="white"/>
<path d="M475 400H500V425H475V400Z" fill="white"/>
<path d="M475 200H500V225H475V200Z" fill="white"/>
<path d="M475 600H500V625H475V600Z" fill="white"/>
<path d="M475 50H500V75H475V50Z" fill="white"/>
<path d="M475 450H500V475H475V450Z" fill="white"/>
<path d="M475 250H500V275H475V250Z" fill="white"/>
<path d="M475 650H500V675H475V650Z" fill="white"/>
<path d="M475 800H500V825H475V800Z" fill="white"/>
<path d="M475 100H500V125H475V100Z" fill="white"/>
<path d="M475 500H500V525H475V500Z" fill="white"/>
<path d="M475 300H500V325H475V300Z" fill="white"/>
<path d="M475 700H500V725H475V700Z" fill="white"/>
<path d="M475 850H500V875H475V850Z" fill="white"/>
<path d="M475 150H500V175H475V150Z" fill="white"/>
<path d="M475 550H500V575H475V550Z" fill="white"/>
<path d="M475 350H500V375H475V350Z" fill="white"/>
<path d="M475 750H500V775H475V750Z" fill="white"/>
<path d="M475 900H500V925H475V900Z" fill="white"/>
<path d="M475 950H500V975H475V950Z" fill="white"/>
<path d="M450 25H475V50H450V25Z" fill="white"/>
<path d="M450 425H475V450H450V425Z" fill="white"/>
<path d="M450 225H475V250H450V225Z" fill="white"/>
<path d="M450 625H475V650H450V625Z" fill="white"/>
<path d="M450 75H475V100H450V75Z" fill="white"/>
<path d="M450 475H475V500H450V475Z" fill="white"/>
<path d="M450 275H475V300H450V275Z" fill="white"/>
<path d="M450 675H475V700H450V675Z" fill="white"/>
<path d="M450 825H475V850H450V825Z" fill="white"/>
<path d="M450 125H475V150H450V125Z" fill="white"/>
<path d="M450 525H475V550H450V525Z" fill="white"/>
<path d="M450 325H475V350H450V325Z" fill="white"/>
<path d="M450 725H475V750H450V725Z" fill="white"/>
<path d="M450 875H475V900H450V875Z" fill="white"/>
<path d="M450 175H475V200H450V175Z" fill="white"/>
<path d="M450 575H475V600H450V575Z" fill="white"/>
<path d="M450 375H475V400H450V375Z" fill="white"/>
<path d="M450 775H475V800H450V775Z" fill="white"/>
<path d="M450 925H475V950H450V925Z" fill="white"/>
<path d="M450 975H475V1000H450V975Z" fill="white"/>
<path d="M625 0H650V25H625V0Z" fill="white"/>
<path d="M625 400H650V425H625V400Z" fill="white"/>
<path d="M625 200H650V225H625V200Z" fill="white"/>
<path d="M625 600H650V625H625V600Z" fill="white"/>
<path d="M625 50H650V75H625V50Z" fill="white"/>
<path d="M625 450H650V475H625V450Z" fill="white"/>
<path d="M625 250H650V275H625V250Z" fill="white"/>
<path d="M625 650H650V675H625V650Z" fill="white"/>
<path d="M625 800H650V825H625V800Z" fill="white"/>
<path d="M625 100H650V125H625V100Z" fill="white"/>
<path d="M625 500H650V525H625V500Z" fill="white"/>
<path d="M625 300H650V325H625V300Z" fill="white"/>
<path d="M625 700H650V725H625V700Z" fill="white"/>
<path d="M625 850H650V875H625V850Z" fill="white"/>
<path d="M625 150H650V175H625V150Z" fill="white"/>
<path d="M625 550H650V575H625V550Z" fill="white"/>
<path d="M625 350H650V375H625V350Z" fill="white"/>
<path d="M625 750H650V775H625V750Z" fill="white"/>
<path d="M625 900H650V925H625V900Z" fill="white"/>
<path d="M625 950H650V975H625V950Z" fill="white"/>
<path d="M600 25H625V50H600V25Z" fill="white"/>
<path d="M600 425H625V450H600V425Z" fill="white"/>
<path d="M600 225H625V250H600V225Z" fill="white"/>
<path d="M600 625H625V650H600V625Z" fill="white"/>
<path d="M600 75H625V100H600V75Z" fill="white"/>
<path d="M600 475H625V500H600V475Z" fill="white"/>
<path d="M600 275H625V300H600V275Z" fill="white"/>
<path d="M600 675H625V700H600V675Z" fill="white"/>
<path d="M600 825H625V850H600V825Z" fill="white"/>
<path d="M600 125H625V150H600V125Z" fill="white"/>
<path d="M600 525H625V550H600V525Z" fill="white"/>
<path d="M600 325H625V350H600V325Z" fill="white"/>
<path d="M600 725H625V750H600V725Z" fill="white"/>
<path d="M600 875H625V900H600V875Z" fill="white"/>
<path d="M600 175H625V200H600V175Z" fill="white"/>
<path d="M600 575H625V600H600V575Z" fill="white"/>
<path d="M600 375H625V400H600V375Z" fill="white"/>
<path d="M600 775H625V800H600V775Z" fill="white"/>
<path d="M600 925H625V950H600V925Z" fill="white"/>
<path d="M600 975H625V1000H600V975Z" fill="white"/>
<path d="M775 0H800V25H775V0Z" fill="white"/>
<path d="M775 400H800V425H775V400Z" fill="white"/>
<path d="M775 200H800V225H775V200Z" fill="white"/>
<path d="M775 600H800V625H775V600Z" fill="white"/>
<path d="M775 50H800V75H775V50Z" fill="white"/>
<path d="M775 450H800V475H775V450Z" fill="white"/>
<path d="M775 250H800V275H775V250Z" fill="white"/>
<path d="M775 650H800V675H775V650Z" fill="white"/>
<path d="M775 800H800V825H775V800Z" fill="white"/>
<path d="M775 100H800V125H775V100Z" fill="white"/>
<path d="M775 500H800V525H775V500Z" fill="white"/>
<path d="M775 300H800V325H775V300Z" fill="white"/>
<path d="M775 700H800V725H775V700Z" fill="white"/>
<path d="M775 850H800V875H775V850Z" fill="white"/>
<path d="M775 150H800V175H775V150Z" fill="white"/>
<path d="M775 550H800V575H775V550Z" fill="white"/>
<path d="M775 350H800V375H775V350Z" fill="white"/>
<path d="M775 750H800V775H775V750Z" fill="white"/>
<path d="M775 900H800V925H775V900Z" fill="white"/>
<path d="M775 950H800V975H775V950Z" fill="white"/>
<path d="M750 25H775V50H750V25Z" fill="white"/>
<path d="M750 425H775V450H750V425Z" fill="white"/>
<path d="M750 225H775V250H750V225Z" fill="white"/>
<path d="M750 625H775V650H750V625Z" fill="white"/>
<path d="M750 75H775V100H750V75Z" fill="white"/>
<path d="M750 475H775V500H750V475Z" fill="white"/>
<path d="M750 275H775V300H750V275Z" fill="white"/>
<path d="M750 675H775V700H750V675Z" fill="white"/>
<path d="M750 825H775V850H750V825Z" fill="white"/>
<path d="M750 125H775V150H750V125Z" fill="white"/>
<path d="M750 525H775V550H750V525Z" fill="white"/>
<path d="M750 325H775V350H750V325Z" fill="white"/>
<path d="M750 725H775V750H750V725Z" fill="white"/>
<path d="M750 875H775V900H750V875Z" fill="white"/>
<path d="M750 175H775V200H750V175Z" fill="white"/>
<path d="M750 575H775V600H750V575Z" fill="white"/>
<path d="M750 375H775V400H750V375Z" fill="white"/>
<path d="M750 775H775V800H750V775Z" fill="white"/>
<path d="M750 925H775V950H750V925Z" fill="white"/>
<path d="M750 975H775V1000H750V975Z" fill="white"/>
<path d="M75 0H100V25H75V0Z" fill="white"/>
<path d="M75 400H100V425H75V400Z" fill="white"/>
<path d="M75 200H100V225H75V200Z" fill="white"/>
<path d="M75 600H100V625H75V600Z" fill="white"/>
<path d="M75 50H100V75H75V50Z" fill="white"/>
<path d="M75 450H100V475H75V450Z" fill="white"/>
<path d="M75 250H100V275H75V250Z" fill="white"/>
<path d="M75 650H100V675H75V650Z" fill="white"/>
<path d="M75 800H100V825H75V800Z" fill="white"/>
<path d="M75 100H100V125H75V100Z" fill="white"/>
<path d="M75 500H100V525H75V500Z" fill="white"/>
<path d="M75 300H100V325H75V300Z" fill="white"/>
<path d="M75 700H100V725H75V700Z" fill="white"/>
<path d="M75 850H100V875H75V850Z" fill="white"/>
<path d="M75 150H100V175H75V150Z" fill="white"/>
<path d="M75 550H100V575H75V550Z" fill="white"/>
<path d="M75 350H100V375H75V350Z" fill="white"/>
<path d="M75 750H100V775H75V750Z" fill="white"/>
<path d="M75 900H100V925H75V900Z" fill="white"/>
<path d="M75 950H100V975H75V950Z" fill="white"/>
<path d="M50 25H75V50H50V25Z" fill="white"/>
<path d="M50 425H75V450H50V425Z" fill="white"/>
<path d="M50 225H75V250H50V225Z" fill="white"/>
<path d="M50 625H75V650H50V625Z" fill="white"/>
<path d="M50 75H75V100H50V75Z" fill="white"/>
<path d="M50 475H75V500H50V475Z" fill="white"/>
<path d="M50 275H75V300H50V275Z" fill="white"/>
<path d="M50 675H75V700H50V675Z" fill="white"/>
<path d="M50 825H75V850H50V825Z" fill="white"/>
<path d="M50 125H75V150H50V125Z" fill="white"/>
<path d="M50 525H75V550H50V525Z" fill="white"/>
<path d="M50 325H75V350H50V325Z" fill="white"/>
<path d="M50 725H75V750H50V725Z" fill="white"/>
<path d="M50 875H75V900H50V875Z" fill="white"/>
<path d="M50 175H75V200H50V175Z" fill="white"/>
<path d="M50 575H75V600H50V575Z" fill="white"/>
<path d="M50 375H75V400H50V375Z" fill="white"/>
<path d="M50 775H75V800H50V775Z" fill="white"/>
<path d="M50 925H75V950H50V925Z" fill="white"/>
<path d="M50 975H75V1000H50V975Z" fill="white"/>
<path d="M375 0H400V25H375V0Z" fill="white"/>
<path d="M375 400H400V425H375V400Z" fill="white"/>
<path d="M375 200H400V225H375V200Z" fill="white"/>
<path d="M375 600H400V625H375V600Z" fill="white"/>
<path d="M375 50H400V75H375V50Z" fill="white"/>
<path d="M375 450H400V475H375V450Z" fill="white"/>
<path d="M375 250H400V275H375V250Z" fill="white"/>
<path d="M375 650H400V675H375V650Z" fill="white"/>
<path d="M375 800H400V825H375V800Z" fill="white"/>
<path d="M375 100H400V125H375V100Z" fill="white"/>
<path d="M375 500H400V525H375V500Z" fill="white"/>
<path d="M375 300H400V325H375V300Z" fill="white"/>
<path d="M375 700H400V725H375V700Z" fill="white"/>
<path d="M375 850H400V875H375V850Z" fill="white"/>
<path d="M375 150H400V175H375V150Z" fill="white"/>
<path d="M375 550H400V575H375V550Z" fill="white"/>
<path d="M375 350H400V375H375V350Z" fill="white"/>
<path d="M375 750H400V775H375V750Z" fill="white"/>
<path d="M375 900H400V925H375V900Z" fill="white"/>
<path d="M375 950H400V975H375V950Z" fill="white"/>
<path d="M350 25H375V50H350V25Z" fill="white"/>
<path d="M350 425H375V450H350V425Z" fill="white"/>
<path d="M350 225H375V250H350V225Z" fill="white"/>
<path d="M350 625H375V650H350V625Z" fill="white"/>
<path d="M350 75H375V100H350V75Z" fill="white"/>
<path d="M350 475H375V500H350V475Z" fill="white"/>
<path d="M350 275H375V300H350V275Z" fill="white"/>
<path d="M350 675H375V700H350V675Z" fill="white"/>
<path d="M350 825H375V850H350V825Z" fill="white"/>
<path d="M350 125H375V150H350V125Z" fill="white"/>
<path d="M350 525H375V550H350V525Z" fill="white"/>
<path d="M350 325H375V350H350V325Z" fill="white"/>
<path d="M350 725H375V750H350V725Z" fill="white"/>
<path d="M350 875H375V900H350V875Z" fill="white"/>
<path d="M350 175H375V200H350V175Z" fill="white"/>
<path d="M350 575H375V600H350V575Z" fill="white"/>
<path d="M350 375H375V400H350V375Z" fill="white"/>
<path d="M350 775H375V800H350V775Z" fill="white"/>
<path d="M350 925H375V950H350V925Z" fill="white"/>
<path d="M350 975H375V1000H350V975Z" fill="white"/>
<path d="M225 0H250V25H225V0Z" fill="white"/>
<path d="M225 400H250V425H225V400Z" fill="white"/>
<path d="M225 200H250V225H225V200Z" fill="white"/>
<path d="M225 600H250V625H225V600Z" fill="white"/>
<path d="M225 50H250V75H225V50Z" fill="white"/>
<path d="M225 450H250V475H225V450Z" fill="white"/>
<path d="M225 250H250V275H225V250Z" fill="white"/>
<path d="M225 650H250V675H225V650Z" fill="white"/>
<path d="M225 800H250V825H225V800Z" fill="white"/>
<path d="M225 100H250V125H225V100Z" fill="white"/>
<path d="M225 500H250V525H225V500Z" fill="white"/>
<path d="M225 300H250V325H225V300Z" fill="white"/>
<path d="M225 700H250V725H225V700Z" fill="white"/>
<path d="M225 850H250V875H225V850Z" fill="white"/>
<path d="M225 150H250V175H225V150Z" fill="white"/>
<path d="M225 550H250V575H225V550Z" fill="white"/>
<path d="M225 350H250V375H225V350Z" fill="white"/>
<path d="M225 750H250V775H225V750Z" fill="white"/>
<path d="M225 900H250V925H225V900Z" fill="white"/>
<path d="M225 950H250V975H225V950Z" fill="white"/>
<path d="M200 25H225V50H200V25Z" fill="white"/>
<path d="M200 425H225V450H200V425Z" fill="white"/>
<path d="M200 225H225V250H200V225Z" fill="white"/>
<path d="M200 625H225V650H200V625Z" fill="white"/>
<path d="M200 75H225V100H200V75Z" fill="white"/>
<path d="M200 475H225V500H200V475Z" fill="white"/>
<path d="M200 275H225V300H200V275Z" fill="white"/>
<path d="M200 675H225V700H200V675Z" fill="white"/>
<path d="M200 825H225V850H200V825Z" fill="white"/>
<path d="M200 125H225V150H200V125Z" fill="white"/>
<path d="M200 525H225V550H200V525Z" fill="white"/>
<path d="M200 325H225V350H200V325Z" fill="white"/>
<path d="M200 725H225V750H200V725Z" fill="white"/>
<path d="M200 875H225V900H200V875Z" fill="white"/>
<path d="M200 175H225V200H200V175Z" fill="white"/>
<path d="M200 575H225V600H200V575Z" fill="white"/>
<path d="M200 375H225V400H200V375Z" fill="white"/>
<path d="M200 775H225V800H200V775Z" fill="white"/>
<path d="M200 925H225V950H200V925Z" fill="white"/>
<path d="M200 975H225V1000H200V975Z" fill="white"/>
<path d="M525 0H550V25H525V0Z" fill="white"/>
<path d="M525 400H550V425H525V400Z" fill="white"/>
<path d="M525 200H550V225H525V200Z" fill="white"/>
<path d="M525 600H550V625H525V600Z" fill="white"/>
<path d="M525 50H550V75H525V50Z" fill="white"/>
<path d="M525 450H550V475H525V450Z" fill="white"/>
<path d="M525 250H550V275H525V250Z" fill="white"/>
<path d="M525 650H550V675H525V650Z" fill="white"/>
<path d="M525 800H550V825H525V800Z" fill="white"/>
<path d="M525 100H550V125H525V100Z" fill="white"/>
<path d="M525 500H550V525H525V500Z" fill="white"/>
<path d="M525 300H550V325H525V300Z" fill="white"/>
<path d="M525 700H550V725H525V700Z" fill="white"/>
<path d="M525 850H550V875H525V850Z" fill="white"/>
<path d="M525 150H550V175H525V150Z" fill="white"/>
<path d="M525 550H550V575H525V550Z" fill="white"/>
<path d="M525 350H550V375H525V350Z" fill="white"/>
<path d="M525 750H550V775H525V750Z" fill="white"/>
<path d="M525 900H550V925H525V900Z" fill="white"/>
<path d="M525 950H550V975H525V950Z" fill="white"/>
<path d="M500 25H525V50H500V25Z" fill="white"/>
<path d="M500 425H525V450H500V425Z" fill="white"/>
<path d="M500 225H525V250H500V225Z" fill="white"/>
<path d="M500 625H525V650H500V625Z" fill="white"/>
<path d="M500 75H525V100H500V75Z" fill="white"/>
<path d="M500 475H525V500H500V475Z" fill="white"/>
<path d="M500 275H525V300H500V275Z" fill="white"/>
<path d="M500 675H525V700H500V675Z" fill="white"/>
<path d="M500 825H525V850H500V825Z" fill="white"/>
<path d="M500 125H525V150H500V125Z" fill="white"/>
<path d="M500 525H525V550H500V525Z" fill="white"/>
<path d="M500 325H525V350H500V325Z" fill="white"/>
<path d="M500 725H525V750H500V725Z" fill="white"/>
<path d="M500 875H525V900H500V875Z" fill="white"/>
<path d="M500 175H525V200H500V175Z" fill="white"/>
<path d="M500 575H525V600H500V575Z" fill="white"/>
<path d="M500 375H525V400H500V375Z" fill="white"/>
<path d="M500 775H525V800H500V775Z" fill="white"/>
<path d="M500 925H525V950H500V925Z" fill="white"/>
<path d="M500 975H525V1000H500V975Z" fill="white"/>
<path d="M675 0H700V25H675V0Z" fill="white"/>
<path d="M675 400H700V425H675V400Z" fill="white"/>
<path d="M675 200H700V225H675V200Z" fill="white"/>
<path d="M675 600H700V625H675V600Z" fill="white"/>
<path d="M675 50H700V75H675V50Z" fill="white"/>
<path d="M675 450H700V475H675V450Z" fill="white"/>
<path d="M675 250H700V275H675V250Z" fill="white"/>
<path d="M675 650H700V675H675V650Z" fill="white"/>
<path d="M675 800H700V825H675V800Z" fill="white"/>
<path d="M675 100H700V125H675V100Z" fill="white"/>
<path d="M675 500H700V525H675V500Z" fill="white"/>
<path d="M675 300H700V325H675V300Z" fill="white"/>
<path d="M675 700H700V725H675V700Z" fill="white"/>
<path d="M675 850H700V875H675V850Z" fill="white"/>
<path d="M675 150H700V175H675V150Z" fill="white"/>
<path d="M675 550H700V575H675V550Z" fill="white"/>
<path d="M675 350H700V375H675V350Z" fill="white"/>
<path d="M675 750H700V775H675V750Z" fill="white"/>
<path d="M675 900H700V925H675V900Z" fill="white"/>
<path d="M675 950H700V975H675V950Z" fill="white"/>
<path d="M650 25H675V50H650V25Z" fill="white"/>
<path d="M650 425H675V450H650V425Z" fill="white"/>
<path d="M650 225H675V250H650V225Z" fill="white"/>
<path d="M650 625H675V650H650V625Z" fill="white"/>
<path d="M650 75H675V100H650V75Z" fill="white"/>
<path d="M650 475H675V500H650V475Z" fill="white"/>
<path d="M650 275H675V300H650V275Z" fill="white"/>
<path d="M650 675H675V700H650V675Z" fill="white"/>
<path d="M650 825H675V850H650V825Z" fill="white"/>
<path d="M650 125H675V150H650V125Z" fill="white"/>
<path d="M650 525H675V550H650V525Z" fill="white"/>
<path d="M650 325H675V350H650V325Z" fill="white"/>
<path d="M650 725H675V750H650V725Z" fill="white"/>
<path d="M650 875H675V900H650V875Z" fill="white"/>
<path d="M650 175H675V200H650V175Z" fill="white"/>
<path d="M650 575H675V600H650V575Z" fill="white"/>
<path d="M650 375H675V400H650V375Z" fill="white"/>
<path d="M650 775H675V800H650V775Z" fill="white"/>
<path d="M650 925H675V950H650V925Z" fill="white"/>
<path d="M650 975H675V1000H650V975Z" fill="white"/>
<path d="M825 0H850V25H825V0Z" fill="white"/>
<path d="M825 400H850V425H825V400Z" fill="white"/>
<path d="M825 200H850V225H825V200Z" fill="white"/>
<path d="M825 600H850V625H825V600Z" fill="white"/>
<path d="M825 50H850V75H825V50Z" fill="white"/>
<path d="M825 450H850V475H825V450Z" fill="white"/>
<path d="M825 250H850V275H825V250Z" fill="white"/>
<path d="M825 650H850V675H825V650Z" fill="white"/>
<path d="M825 800H850V825H825V800Z" fill="white"/>
<path d="M825 100H850V125H825V100Z" fill="white"/>
<path d="M825 500H850V525H825V500Z" fill="white"/>
<path d="M825 300H850V325H825V300Z" fill="white"/>
<path d="M825 700H850V725H825V700Z" fill="white"/>
<path d="M825 850H850V875H825V850Z" fill="white"/>
<path d="M825 150H850V175H825V150Z" fill="white"/>
<path d="M825 550H850V575H825V550Z" fill="white"/>
<path d="M825 350H850V375H825V350Z" fill="white"/>
<path d="M825 750H850V775H825V750Z" fill="white"/>
<path d="M825 900H850V925H825V900Z" fill="white"/>
<path d="M825 950H850V975H825V950Z" fill="white"/>
<path d="M800 25H825V50H800V25Z" fill="white"/>
<path d="M800 425H825V450H800V425Z" fill="white"/>
<path d="M800 225H825V250H800V225Z" fill="white"/>
<path d="M800 625H825V650H800V625Z" fill="white"/>
<path d="M800 75H825V100H800V75Z" fill="white"/>
<path d="M800 475H825V500H800V475Z" fill="white"/>
<path d="M800 275H825V300H800V275Z" fill="white"/>
<path d="M800 675H825V700H800V675Z" fill="white"/>
<path d="M800 825H825V850H800V825Z" fill="white"/>
<path d="M800 125H825V150H800V125Z" fill="white"/>
<path d="M800 525H825V550H800V525Z" fill="white"/>
<path d="M800 325H825V350H800V325Z" fill="white"/>
<path d="M800 725H825V750H800V725Z" fill="white"/>
<path d="M800 875H825V900H800V875Z" fill="white"/>
<path d="M800 175H825V200H800V175Z" fill="white"/>
<path d="M800 575H825V600H800V575Z" fill="white"/>
<path d="M800 375H825V400H800V375Z" fill="white"/>
<path d="M800 775H825V800H800V775Z" fill="white"/>
<path d="M800 925H825V950H800V925Z" fill="white"/>
<path d="M800 975H825V1000H800V975Z" fill="white"/>
<path d="M925 0H950V25H925V0Z" fill="white"/>
<path d="M925 400H950V425H925V400Z" fill="white"/>
<path d="M925 200H950V225H925V200Z" fill="white"/>
<path d="M925 600H950V625H925V600Z" fill="white"/>
<path d="M925 50H950V75H925V50Z" fill="white"/>
<path d="M925 450H950V475H925V450Z" fill="white"/>
<path d="M925 250H950V275H925V250Z" fill="white"/>
<path d="M925 650H950V675H925V650Z" fill="white"/>
<path d="M925 800H950V825H925V800Z" fill="white"/>
<path d="M925 100H950V125H925V100Z" fill="white"/>
<path d="M925 500H950V525H925V500Z" fill="white"/>
<path d="M925 300H950V325H925V300Z" fill="white"/>
<path d="M925 700H950V725H925V700Z" fill="white"/>
<path d="M925 850H950V875H925V850Z" fill="white"/>
<path d="M925 150H950V175H925V150Z" fill="white"/>
<path d="M925 550H950V575H925V550Z" fill="white"/>
<path d="M925 350H950V375H925V350Z" fill="white"/>
<path d="M925 750H950V775H925V750Z" fill="white"/>
<path d="M925 900H950V925H925V900Z" fill="white"/>
<path d="M925 950H950V975H925V950Z" fill="white"/>
<path d="M900 25H925V50H900V25Z" fill="white"/>
<path d="M900 425H925V450H900V425Z" fill="white"/>
<path d="M900 225H925V250H900V225Z" fill="white"/>
<path d="M900 625H925V650H900V625Z" fill="white"/>
<path d="M900 75H925V100H900V75Z" fill="white"/>
<path d="M900 475H925V500H900V475Z" fill="white"/>
<path d="M900 275H925V300H900V275Z" fill="white"/>
<path d="M900 675H925V700H900V675Z" fill="white"/>
<path d="M900 825H925V850H900V825Z" fill="white"/>
<path d="M900 125H925V150H900V125Z" fill="white"/>
<path d="M900 525H925V550H900V525Z" fill="white"/>
<path d="M900 325H925V350H900V325Z" fill="white"/>
<path d="M900 725H925V750H900V725Z" fill="white"/>
<path d="M900 875H925V900H900V875Z" fill="white"/>
<path d="M900 175H925V200H900V175Z" fill="white"/>
<path d="M900 575H925V600H900V575Z" fill="white"/>
<path d="M900 375H925V400H900V375Z" fill="white"/>
<path d="M900 775H925V800H900V775Z" fill="white"/>
<path d="M900 925H925V950H900V925Z" fill="white"/>
<path d="M900 975H925V1000H900V975Z" fill="white"/>
<path d="M125 0H150V25H125V0Z" fill="white"/>
<path d="M125 400H150V425H125V400Z" fill="white"/>
<path d="M125 200H150V225H125V200Z" fill="white"/>
<path d="M125 600H150V625H125V600Z" fill="white"/>
<path d="M125 50H150V75H125V50Z" fill="white"/>
<path d="M125 450H150V475H125V450Z" fill="white"/>
<path d="M125 250H150V275H125V250Z" fill="white"/>
<path d="M125 650H150V675H125V650Z" fill="white"/>
<path d="M125 800H150V825H125V800Z" fill="white"/>
<path d="M125 100H150V125H125V100Z" fill="white"/>
<path d="M125 500H150V525H125V500Z" fill="white"/>
<path d="M125 300H150V325H125V300Z" fill="white"/>
<path d="M125 700H150V725H125V700Z" fill="white"/>
<path d="M125 850H150V875H125V850Z" fill="white"/>
<path d="M125 150H150V175H125V150Z" fill="white"/>
<path d="M125 550H150V575H125V550Z" fill="white"/>
<path d="M125 350H150V375H125V350Z" fill="white"/>
<path d="M125 750H150V775H125V750Z" fill="white"/>
<path d="M125 900H150V925H125V900Z" fill="white"/>
<path d="M125 950H150V975H125V950Z" fill="white"/>
<path d="M100 25H125V50H100V25Z" fill="white"/>
<path d="M100 425H125V450H100V425Z" fill="white"/>
<path d="M100 225H125V250H100V225Z" fill="white"/>
<path d="M100 625H125V650H100V625Z" fill="white"/>
<path d="M100 75H125V100H100V75Z" fill="white"/>
<path d="M100 475H125V500H100V475Z" fill="white"/>
<path d="M100 275H125V300H100V275Z" fill="white"/>
<path d="M100 675H125V700H100V675Z" fill="white"/>
<path d="M100 825H125V850H100V825Z" fill="white"/>
<path d="M100 125H125V150H100V125Z" fill="white"/>
<path d="M100 525H125V550H100V525Z" fill="white"/>
<path d="M100 325H125V350H100V325Z" fill="white"/>
<path d="M100 725H125V750H100V725Z" fill="white"/>
<path d="M100 875H125V900H100V875Z" fill="white"/>
<path d="M100 175H125V200H100V175Z" fill="white"/>
<path d="M100 575H125V600H100V575Z" fill="white"/>
<path d="M100 375H125V400H100V375Z" fill="white"/>
<path d="M100 775H125V800H100V775Z" fill="white"/>
<path d="M100 925H125V950H100V925Z" fill="white"/>
<path d="M100 975H125V1000H100V975Z" fill="white"/>
<path d="M425 0H450V25H425V0Z" fill="white"/>
<path d="M425 400H450V425H425V400Z" fill="white"/>
<path d="M425 200H450V225H425V200Z" fill="white"/>
<path d="M425 600H450V625H425V600Z" fill="white"/>
<path d="M425 50H450V75H425V50Z" fill="white"/>
<path d="M425 450H450V475H425V450Z" fill="white"/>
<path d="M425 250H450V275H425V250Z" fill="white"/>
<path d="M425 650H450V675H425V650Z" fill="white"/>
<path d="M425 800H450V825H425V800Z" fill="white"/>
<path d="M425 100H450V125H425V100Z" fill="white"/>
<path d="M425 500H450V525H425V500Z" fill="white"/>
<path d="M425 300H450V325H425V300Z" fill="white"/>
<path d="M425 700H450V725H425V700Z" fill="white"/>
<path d="M425 850H450V875H425V850Z" fill="white"/>
<path d="M425 150H450V175H425V150Z" fill="white"/>
<path d="M425 550H450V575H425V550Z" fill="white"/>
<path d="M425 350H450V375H425V350Z" fill="white"/>
<path d="M425 750H450V775H425V750Z" fill="white"/>
<path d="M425 900H450V925H425V900Z" fill="white"/>
<path d="M425 950H450V975H425V950Z" fill="white"/>
<path d="M400 25H425V50H400V25Z" fill="white"/>
<path d="M400 425H425V450H400V425Z" fill="white"/>
<path d="M400 225H425V250H400V225Z" fill="white"/>
<path d="M400 625H425V650H400V625Z" fill="white"/>
<path d="M400 75H425V100H400V75Z" fill="white"/>
<path d="M400 475H425V500H400V475Z" fill="white"/>
<path d="M400 275H425V300H400V275Z" fill="white"/>
<path d="M400 675H425V700H400V675Z" fill="white"/>
<path d="M400 825H425V850H400V825Z" fill="white"/>
<path d="M400 125H425V150H400V125Z" fill="white"/>
<path d="M400 525H425V550H400V525Z" fill="white"/>
<path d="M400 325H425V350H400V325Z" fill="white"/>
<path d="M400 725H425V750H400V725Z" fill="white"/>
<path d="M400 875H425V900H400V875Z" fill="white"/>
<path d="M400 175H425V200H400V175Z" fill="white"/>
<path d="M400 575H425V600H400V575Z" fill="white"/>
<path d="M400 375H425V400H400V375Z" fill="white"/>
<path d="M400 775H425V800H400V775Z" fill="white"/>
<path d="M400 925H425V950H400V925Z" fill="white"/>
<path d="M400 975H425V1000H400V975Z" fill="white"/>
<path d="M275 0H300V25H275V0Z" fill="white"/>
<path d="M275 400H300V425H275V400Z" fill="white"/>
<path d="M275 200H300V225H275V200Z" fill="white"/>
<path d="M275 600H300V625H275V600Z" fill="white"/>
<path d="M275 50H300V75H275V50Z" fill="white"/>
<path d="M275 450H300V475H275V450Z" fill="white"/>
<path d="M275 250H300V275H275V250Z" fill="white"/>
<path d="M275 650H300V675H275V650Z" fill="white"/>
<path d="M275 800H300V825H275V800Z" fill="white"/>
<path d="M275 100H300V125H275V100Z" fill="white"/>
<path d="M275 500H300V525H275V500Z" fill="white"/>
<path d="M275 300H300V325H275V300Z" fill="white"/>
<path d="M275 700H300V725H275V700Z" fill="white"/>
<path d="M275 850H300V875H275V850Z" fill="white"/>
<path d="M275 150H300V175H275V150Z" fill="white"/>
<path d="M275 550H300V575H275V550Z" fill="white"/>
<path d="M275 350H300V375H275V350Z" fill="white"/>
<path d="M275 750H300V775H275V750Z" fill="white"/>
<path d="M275 900H300V925H275V900Z" fill="white"/>
<path d="M275 950H300V975H275V950Z" fill="white"/>
<path d="M250 25H275V50H250V25Z" fill="white"/>
<path d="M250 425H275V450H250V425Z" fill="white"/>
<path d="M250 225H275V250H250V225Z" fill="white"/>
<path d="M250 625H275V650H250V625Z" fill="white"/>
<path d="M250 75H275V100H250V75Z" fill="white"/>
<path d="M250 475H275V500H250V475Z" fill="white"/>
<path d="M250 275H275V300H250V275Z" fill="white"/>
<path d="M250 675H275V700H250V675Z" fill="white"/>
<path d="M250 825H275V850H250V825Z" fill="white"/>
<path d="M250 125H275V150H250V125Z" fill="white"/>
<path d="M250 525H275V550H250V525Z" fill="white"/>
<path d="M250 325H275V350H250V325Z" fill="white"/>
<path d="M250 725H275V750H250V725Z" fill="white"/>
<path d="M250 875H275V900H250V875Z" fill="white"/>
<path d="M250 175H275V200H250V175Z" fill="white"/>
<path d="M250 575H275V600H250V575Z" fill="white"/>
<path d="M250 375H275V400H250V375Z" fill="white"/>
<path d="M250 775H275V800H250V775Z" fill="white"/>
<path d="M250 925H275V950H250V925Z" fill="white"/>
<path d="M250 975H275V1000H250V975Z" fill="white"/>
<path d="M575 0H600V25H575V0Z" fill="white"/>
<path d="M575 400H600V425H575V400Z" fill="white"/>
<path d="M575 200H600V225H575V200Z" fill="white"/>
<path d="M575 600H600V625H575V600Z" fill="white"/>
<path d="M575 50H600V75H575V50Z" fill="white"/>
<path d="M575 450H600V475H575V450Z" fill="white"/>
<path d="M575 250H600V275H575V250Z" fill="white"/>
<path d="M575 650H600V675H575V650Z" fill="white"/>
<path d="M575 800H600V825H575V800Z" fill="white"/>
<path d="M575 100H600V125H575V100Z" fill="white"/>
<path d="M575 500H600V525H575V500Z" fill="white"/>
<path d="M575 300H600V325H575V300Z" fill="white"/>
<path d="M575 700H600V725H575V700Z" fill="white"/>
<path d="M575 850H600V875H575V850Z" fill="white"/>
<path d="M575 150H600V175H575V150Z" fill="white"/>
<path d="M575 550H600V575H575V550Z" fill="white"/>
<path d="M575 350H600V375H575V350Z" fill="white"/>
<path d="M575 750H600V775H575V750Z" fill="white"/>
<path d="M575 900H600V925H575V900Z" fill="white"/>
<path d="M575 950H600V975H575V950Z" fill="white"/>
<path d="M550 25H575V50H550V25Z" fill="white"/>
<path d="M550 425H575V450H550V425Z" fill="white"/>
<path d="M550 225H575V250H550V225Z" fill="white"/>
<path d="M550 625H575V650H550V625Z" fill="white"/>
<path d="M550 75H575V100H550V75Z" fill="white"/>
<path d="M550 475H575V500H550V475Z" fill="white"/>
<path d="M550 275H575V300H550V275Z" fill="white"/>
<path d="M550 675H575V700H550V675Z" fill="white"/>
<path d="M550 825H575V850H550V825Z" fill="white"/>
<path d="M550 125H575V150H550V125Z" fill="white"/>
<path d="M550 525H575V550H550V525Z" fill="white"/>
<path d="M550 325H575V350H550V325Z" fill="white"/>
<path d="M550 725H575V750H550V725Z" fill="white"/>
<path d="M550 875H575V900H550V875Z" fill="white"/>
<path d="M550 175H575V200H550V175Z" fill="white"/>
<path d="M550 575H575V600H550V575Z" fill="white"/>
<path d="M550 375H575V400H550V375Z" fill="white"/>
<path d="M550 775H575V800H550V775Z" fill="white"/>
<path d="M550 925H575V950H550V925Z" fill="white"/>
<path d="M550 975H575V1000H550V975Z" fill="white"/>
<path d="M725 0H750V25H725V0Z" fill="white"/>
<path d="M725 400H750V425H725V400Z" fill="white"/>
<path d="M725 200H750V225H725V200Z" fill="white"/>
<path d="M725 600H750V625H725V600Z" fill="white"/>
<path d="M725 50H750V75H725V50Z" fill="white"/>
<path d="M725 450H750V475H725V450Z" fill="white"/>
<path d="M725 250H750V275H725V250Z" fill="white"/>
<path d="M725 650H750V675H725V650Z" fill="white"/>
<path d="M725 800H750V825H725V800Z" fill="white"/>
<path d="M725 100H750V125H725V100Z" fill="white"/>
<path d="M725 500H750V525H725V500Z" fill="white"/>
<path d="M725 300H750V325H725V300Z" fill="white"/>
<path d="M725 700H750V725H725V700Z" fill="white"/>
<path d="M725 850H750V875H725V850Z" fill="white"/>
<path d="M725 150H750V175H725V150Z" fill="white"/>
<path d="M725 550H750V575H725V550Z" fill="white"/>
<path d="M725 350H750V375H725V350Z" fill="white"/>
<path d="M725 750H750V775H725V750Z" fill="white"/>
<path d="M725 900H750V925H725V900Z" fill="white"/>
<path d="M725 950H750V975H725V950Z" fill="white"/>
<path d="M700 25H725V50H700V25Z" fill="white"/>
<path d="M700 425H725V450H700V425Z" fill="white"/>
<path d="M700 225H725V250H700V225Z" fill="white"/>
<path d="M700 625H725V650H700V625Z" fill="white"/>
<path d="M700 75H725V100H700V75Z" fill="white"/>
<path d="M700 475H725V500H700V475Z" fill="white"/>
<path d="M700 275H725V300H700V275Z" fill="white"/>
<path d="M700 675H725V700H700V675Z" fill="white"/>
<path d="M700 825H725V850H700V825Z" fill="white"/>
<path d="M700 125H725V150H700V125Z" fill="white"/>
<path d="M700 525H725V550H700V525Z" fill="white"/>
<path d="M700 325H725V350H700V325Z" fill="white"/>
<path d="M700 725H725V750H700V725Z" fill="white"/>
<path d="M700 875H725V900H700V875Z" fill="white"/>
<path d="M700 175H725V200H700V175Z" fill="white"/>
<path d="M700 575H725V600H700V575Z" fill="white"/>
<path d="M700 375H725V400H700V375Z" fill="white"/>
<path d="M700 775H725V800H700V775Z" fill="white"/>
<path d="M700 925H725V950H700V925Z" fill="white"/>
<path d="M700 975H725V1000H700V975Z" fill="white"/>
<path d="M875 0H900V25H875V0Z" fill="white"/>
<path d="M875 400H900V425H875V400Z" fill="white"/>
<path d="M875 200H900V225H875V200Z" fill="white"/>
<path d="M875 600H900V625H875V600Z" fill="white"/>
<path d="M875 50H900V75H875V50Z" fill="white"/>
<path d="M875 450H900V475H875V450Z" fill="white"/>
<path d="M875 250H900V275H875V250Z" fill="white"/>
<path d="M875 650H900V675H875V650Z" fill="white"/>
<path d="M875 800H900V825H875V800Z" fill="white"/>
<path d="M875 100H900V125H875V100Z" fill="white"/>
<path d="M875 500H900V525H875V500Z" fill="white"/>
<path d="M875 300H900V325H875V300Z" fill="white"/>
<path d="M875 700H900V725H875V700Z" fill="white"/>
<path d="M875 850H900V875H875V850Z" fill="white"/>
<path d="M875 150H900V175H875V150Z" fill="white"/>
<path d="M875 550H900V575H875V550Z" fill="white"/>
<path d="M875 350H900V375H875V350Z" fill="white"/>
<path d="M875 750H900V775H875V750Z" fill="white"/>
<path d="M875 900H900V925H875V900Z" fill="white"/>
<path d="M875 950H900V975H875V950Z" fill="white"/>
<path d="M850 25H875V50H850V25Z" fill="white"/>
<path d="M850 425H875V450H850V425Z" fill="white"/>
<path d="M850 225H875V250H850V225Z" fill="white"/>
<path d="M850 625H875V650H850V625Z" fill="white"/>
<path d="M850 75H875V100H850V75Z" fill="white"/>
<path d="M850 475H875V500H850V475Z" fill="white"/>
<path d="M850 275H875V300H850V275Z" fill="white"/>
<path d="M850 675H875V700H850V675Z" fill="white"/>
<path d="M850 825H875V850H850V825Z" fill="white"/>
<path d="M850 125H875V150H850V125Z" fill="white"/>
<path d="M850 525H875V550H850V525Z" fill="white"/>
<path d="M850 325H875V350H850V325Z" fill="white"/>
<path d="M850 725H875V750H850V725Z" fill="white"/>
<path d="M850 875H875V900H850V875Z" fill="white"/>
<path d="M850 175H875V200H850V175Z" fill="white"/>
<path d="M850 575H875V600H850V575Z" fill="white"/>
<path d="M850 375H875V400H850V375Z" fill="white"/>
<path d="M850 775H875V800H850V775Z" fill="white"/>
<path d="M850 925H875V950H850V925Z" fill="white"/>
<path d="M850 975H875V1000H850V975Z" fill="white"/>
<path d="M975 0H1000V25H975V0Z" fill="white"/>
<path d="M975 400H1000V425H975V400Z" fill="white"/>
<path d="M975 200H1000V225H975V200Z" fill="white"/>
<path d="M975 600H1000V625H975V600Z" fill="white"/>
<path d="M975 50H1000V75H975V50Z" fill="white"/>
<path d="M975 450H1000V475H975V450Z" fill="white"/>
<path d="M975 250H1000V275H975V250Z" fill="white"/>
<path d="M975 650H1000V675H975V650Z" fill="white"/>
<path d="M975 800H1000V825H975V800Z" fill="white"/>
<path d="M975 100H1000V125H975V100Z" fill="white"/>
<path d="M975 500H1000V525H975V500Z" fill="white"/>
<path d="M975 300H1000V325H975V300Z" fill="white"/>
<path d="M975 700H1000V725H975V700Z" fill="white"/>
<path d="M975 850H1000V875H975V850Z" fill="white"/>
<path d="M975 150H1000V175H975V150Z" fill="white"/>
<path d="M975 550H1000V575H975V550Z" fill="white"/>
<path d="M975 350H1000V375H975V350Z" fill="white"/>
<path d="M975 750H1000V775H975V750Z" fill="white"/>
<path d="M975 900H1000V925H975V900Z" fill="white"/>
<path d="M975 950H1000V975H975V950Z" fill="white"/>
<path d="M950 25H975V50H950V25Z" fill="white"/>
<path d="M950 425H975V450H950V425Z" fill="white"/>
<path d="M950 225H975V250H950V225Z" fill="white"/>
<path d="M950 625H975V650H950V625Z" fill="white"/>
<path d="M950 75H975V100H950V75Z" fill="white"/>
<path d="M950 475H975V500H950V475Z" fill="white"/>
<path d="M950 275H975V300H950V275Z" fill="white"/>
<path d="M950 675H975V700H950V675Z" fill="white"/>
<path d="M950 825H975V850H950V825Z" fill="white"/>
<path d="M950 125H975V150H950V125Z" fill="white"/>
<path d="M950 525H975V550H950V525Z" fill="white"/>
<path d="M950 325H975V350H950V325Z" fill="white"/>
<path d="M950 725H975V750H950V725Z" fill="white"/>
<path d="M950 875H975V900H950V875Z" fill="white"/>
<path d="M950 175H975V200H950V175Z" fill="white"/>
<path d="M950 575H975V600H950V575Z" fill="white"/>
<path d="M950 375H975V400H950V375Z" fill="white"/>
<path d="M950 775H975V800H950V775Z" fill="white"/>
<path d="M950 925H975V950H950V925Z" fill="white"/>
<path d="M950 975H975V1000H950V975Z" fill="white"/>
<path d="M0 25H25V50H0V25Z" fill="white"/>
<path d="M0 425H25V450H0V425Z" fill="white"/>
<path d="M0 225H25V250H0V225Z" fill="white"/>
<path d="M0 625H25V650H0V625Z" fill="white"/>
<path d="M0 75H25V100H0V75Z" fill="white"/>
<path d="M0 475H25V500H0V475Z" fill="white"/>
<path d="M0 275H25V300H0V275Z" fill="white"/>
<path d="M0 675H25V700H0V675Z" fill="white"/>
<path d="M0 825H25V850H0V825Z" fill="white"/>
<path d="M0 125H25V150H0V125Z" fill="white"/>
<path d="M0 525H25V550H0V525Z" fill="white"/>
<path d="M0 325H25V350H0V325Z" fill="white"/>
<path d="M0 725H25V750H0V725Z" fill="white"/>
<path d="M0 875H25V900H0V875Z" fill="white"/>
<path d="M0 175H25V200H0V175Z" fill="white"/>
<path d="M0 575H25V600H0V575Z" fill="white"/>
<path d="M0 375H25V400H0V375Z" fill="white"/>
<path d="M0 775H25V800H0V775Z" fill="white"/>
<path d="M0 925H25V950H0V925Z" fill="white"/>
<path d="M0 975H25V1000H0V975Z" fill="white"/>
</g>
<defs>
<clipPath id="clip0_201_3">
<rect width="1000" height="1000" fill="white"/>
</clipPath>
</defs>
</svg>
